<svg width="390" height="341" viewBox="0 0 390 341" fill="none" xmlns="http://www.w3.org/2000/svg">
<path d="M-4 0H393.523V318.019C393.523 318.019 311.899 340.28 192.112 340.28C72.3245 340.28 -4 318.019 -4 318.019V0Z" fill="#B9794A"/>
<mask id="mask0_6_3754" style="mask-type:alpha" maskUnits="userSpaceOnUse" x="-4" y="0" width="398" height="341">
<path d="M-4 0H393.523V318.019C393.523 318.019 311.899 340.28 192.112 340.28C72.3245 340.28 -4 318.019 -4 318.019V0Z" fill="#B9724A"/>
</mask>
<g mask="url(#mask0_6_3754)">
<path d="M-30.7356 222.938C-18.2533 227.973 -4.73881 229.915 8.65633 228.601C22.0515 227.286 34.9303 222.753 46.1954 215.387C57.4606 208.021 66.7783 198.041 73.3546 186.298C79.9308 174.554 83.5708 161.395 83.9643 147.941C84.3578 134.488 81.4932 121.138 75.6146 109.03C69.736 96.9224 61.0176 86.415 50.2022 78.4035C39.3867 70.3919 26.7949 65.1135 13.4995 63.0181C0.204155 60.9227 -13.4007 62.0723 -26.156 66.369L-15.309 98.5694C-7.74418 96.0211 0.324541 95.3393 8.2097 96.5821C16.0949 97.8248 23.5627 100.955 29.9771 105.707C36.3914 110.458 41.5621 116.69 45.0486 123.871C48.535 131.052 50.234 138.969 50.0006 146.948C49.7672 154.927 47.6084 162.731 43.7082 169.696C39.808 176.661 34.2819 182.58 27.6008 186.948C20.9197 191.317 13.2816 194.005 5.33731 194.785C-2.607 195.565 -10.6221 194.412 -18.025 191.426L-30.7356 222.938Z" fill="white" fill-opacity="0.1"/>
<path d="M21.4415 -9.91821e-05C21.4415 5.56828 22.5382 11.0821 24.6692 16.2266C26.8001 21.3711 29.9234 26.0456 33.8609 29.983C37.7983 33.9204 42.4727 37.0438 47.6172 39.1747C52.7617 41.3056 58.2756 42.4024 63.844 42.4024C69.4123 42.4024 74.9262 41.3056 80.0707 39.1747C85.2152 37.0438 89.8896 33.9204 93.827 29.983C97.7645 26.0456 100.888 21.3711 103.019 16.2266C105.15 11.0821 106.246 5.56828 106.246 -9.53674e-05H88.9918C88.9918 3.30237 88.3413 6.57249 87.0775 9.62357C85.8137 12.6746 83.9614 15.4469 81.6262 17.7821C79.291 20.1173 76.5187 21.9697 73.4676 23.2335C70.4165 24.4973 67.1464 25.1478 63.844 25.1478C60.5415 25.1478 57.2714 24.4973 54.2203 23.2335C51.1692 21.9697 48.3969 20.1173 46.0617 17.7821C43.7265 15.4469 41.8742 12.6746 40.6104 9.62357C39.3466 6.57249 38.6961 3.30236 38.6961 -9.91821e-05H21.4415Z" fill="white" fill-opacity="0.1"/>
</g>
<circle cx="273.736" cy="151.589" r="5.92044" stroke="white" stroke-opacity="0.1" stroke-width="3"/>
</svg>
