<svg width="33" height="28" viewBox="0 0 33 28" fill="none" xmlns="http://www.w3.org/2000/svg">
<g clip-path="url(#clip0_56_55)">
<path d="M0 9.36863C0.0220647 9.25389 0.0397165 9.13474 0.0617812 9.02C0.105911 8.75964 0.251538 8.57871 0.481011 8.45073C1.80931 7.71818 3.13319 6.97681 4.46149 6.24867C6.37671 5.19839 8.29192 4.1437 10.216 3.10666C12.0164 2.1314 13.8213 1.16496 15.6351 0.211765C16.1911 -0.079489 16.8089 -0.0530113 17.3473 0.220591C18.7506 0.926663 20.1274 1.68128 21.5043 2.43148C24.0947 3.83038 26.6807 5.23811 29.2622 6.64584C30.3566 7.24159 31.4422 7.8594 32.5366 8.45956C32.8102 8.6096 32.9647 8.83466 32.9779 9.13033C33 9.70401 33.0132 10.2777 32.9779 10.847C32.9426 11.4074 32.3645 11.937 31.8041 11.9458C30.3655 11.9723 28.9224 11.9855 27.4838 11.9943C25.8157 12.0032 24.1476 12.0032 22.4795 12.0076C19.8715 12.0076 17.2679 12.0076 14.6598 12.0076C10.8558 12.0032 7.0563 11.9943 3.25234 11.9811C2.63012 11.9811 2.00789 11.9679 1.39008 11.9546C0.648703 11.9414 0.141214 11.4957 0.0264777 10.7675C0.0264777 10.7455 0.00882589 10.7234 0 10.7057C0 10.2645 0 9.81875 0 9.37745L0 9.36863ZM16.9413 10.1894C16.9501 10.1585 16.9589 10.1365 16.9589 10.1144C16.9825 9.84375 17.1252 9.66724 17.387 9.58486C18.0269 9.38628 18.4461 8.97146 18.5785 8.30511C18.7153 7.6211 18.5785 7.0077 18.0092 6.56641C17.7312 6.35017 17.3914 6.20896 17.0869 6.02803C17.034 5.99714 16.9678 5.92212 16.9678 5.86916C16.9678 5.21604 16.9678 4.56734 16.9766 3.91423C16.9766 3.85244 16.9987 3.79508 17.0075 3.72888C17.3738 3.8701 17.5679 4.24078 17.6871 5.02188H18.5917C18.5653 4.83212 18.552 4.66001 18.5167 4.49232C18.3534 3.7024 17.9651 3.11548 17.1178 2.93014C17.056 2.9169 16.981 2.8154 16.9722 2.74921C16.9501 2.59476 16.9634 2.43589 16.9634 2.28144H16.1117V2.89484C15.9969 2.92573 15.8998 2.9522 15.8028 2.98309C15.3306 3.13314 14.9775 3.4288 14.7834 3.87451C14.3244 4.92038 14.6951 5.97507 15.9263 6.47815C16.0366 6.52228 16.1028 6.57964 16.1028 6.68997C16.1028 7.36074 16.1117 8.02709 16.1028 8.69786C16.1028 8.90085 16.0146 8.92292 15.8381 8.83025C15.4453 8.61843 15.2953 8.25657 15.2291 7.85057C15.2114 7.74466 15.1585 7.70053 15.0702 7.69612C14.8407 7.69171 14.6068 7.69612 14.3685 7.69612C14.3774 7.79762 14.3862 7.89029 14.3906 7.98737C14.448 8.77729 14.929 9.38187 15.6704 9.60251C15.9499 9.68489 16.1014 9.86729 16.1249 10.1497C16.1249 10.1497 16.1337 10.1718 16.1426 10.1894H16.9369H16.9413Z" fill="#50894D"/>
<path d="M14.2494 23.5519C14.2494 23.0974 14.2494 22.6605 14.2494 22.2236C14.2582 21.3675 14.2671 20.5158 14.2847 19.6597C14.2935 19.3155 14.523 19.086 14.8628 19.086C15.9969 19.0772 17.1355 19.0728 18.2696 19.0684C18.4417 19.0684 18.733 19.3773 18.7374 19.5538C18.7506 20.8335 18.7594 22.1133 18.7727 23.393C18.7727 23.4416 18.7771 23.4857 18.7815 23.5519H19.0198C21.9103 23.5519 24.8008 23.5475 27.6868 23.5519C28.7857 23.5519 29.8801 23.6049 30.9789 23.6049C31.7556 23.6049 32.2145 24.2183 32.2189 24.8184C32.2233 25.3921 32.2498 25.9658 32.2189 26.5395C32.1836 27.1661 31.6585 27.6604 31.023 27.6824C30.3169 27.7089 29.6109 27.7089 28.9048 27.7089C21.2483 27.7177 13.5919 27.7266 5.93543 27.731C4.66891 27.731 3.40239 27.6868 2.13588 27.6604C1.98584 27.6604 1.8358 27.6383 1.69017 27.6162C1.2224 27.5456 0.811996 27.0779 0.794344 26.5527C0.776692 25.8599 0.794344 25.167 0.794344 24.4742C0.794344 24.4389 0.80317 24.3992 0.820822 24.3727C1.14738 23.927 1.50483 23.5696 2.13588 23.5828C3.18616 23.6049 4.24085 23.5607 5.29114 23.5607C8.20809 23.5519 11.125 23.5519 14.0376 23.5475C14.095 23.5475 14.1567 23.5475 14.2362 23.5475L14.2494 23.5519Z" fill="#50894D"/>
<path d="M20.9703 12.4004H23.6446V23.1945H20.9703V12.4004Z" fill="#50894D"/>
<path d="M6.49144 12.4092V23.1988H3.8172V12.4092H6.49144Z" fill="#50894D"/>
<path d="M26.5394 23.1768V12.4048H29.196V23.1812H26.5394V23.1768Z" fill="#50894D"/>
<path d="M12.0385 23.19H9.3819V12.4048H12.0385V23.19Z" fill="#50894D"/>
<path d="M17.0252 6.91506C17.4576 7.15777 17.7842 7.60348 17.7312 8.02271C17.6827 8.40222 17.4576 8.65817 17.1355 8.8391C17.0472 8.88764 16.9766 8.86558 16.9766 8.75526C16.9766 8.17716 16.9766 7.59906 16.9854 7.02097C16.9854 6.99008 17.0075 6.95477 17.0252 6.91064V6.91506Z" fill="#50894D"/>
<path d="M16.1117 3.70239V5.59113C15.7807 5.47198 15.5424 5.09688 15.5424 4.67765C15.5424 4.27608 15.6969 3.79506 16.1117 3.70239Z" fill="#50894D"/>
</g>
<defs>
<clipPath id="clip0_56_55">
<rect width="33" height="27.7354" fill="white"/>
</clipPath>
</defs>
</svg>
