<svg width="32" height="32" viewBox="0 0 32 32" fill="none" xmlns="http://www.w3.org/2000/svg">
<g clip-path="url(#clip0_56_129)">
<path d="M14.5408 27.7646C14.4622 27.746 14.3836 27.7274 14.3096 27.7041C13.9026 27.5643 13.6205 27.1543 13.6205 26.7256C13.6205 24.163 13.6205 21.6051 13.6205 19.0424C13.6205 18.9865 13.6066 18.9446 13.565 18.9027C12.6677 18.0034 11.7705 17.0995 10.8779 16.1956C10.6281 15.944 10.568 15.6272 10.6698 15.2964C10.7715 14.9562 11.012 14.7512 11.3635 14.686C11.678 14.6254 11.9509 14.7186 12.1729 14.9469C12.7695 15.548 13.3661 16.149 13.9627 16.7501C14.0598 16.8479 14.157 16.9458 14.2587 17.0436C14.2772 17.0622 14.3096 17.0762 14.3373 17.0762C15.452 17.0762 16.5666 17.0762 17.6812 17.0762C17.7182 17.0762 17.7598 17.0529 17.7829 17.025C18.472 16.3307 19.1658 15.6365 19.8549 14.9423C20.2943 14.4996 21.0204 14.6161 21.3025 15.1752C21.469 15.506 21.4043 15.9347 21.1453 16.2003C20.2526 17.0995 19.36 18.0034 18.4674 18.898C18.4212 18.9446 18.4027 18.9865 18.4027 19.0518C18.4027 21.5957 18.4027 24.1397 18.4073 26.6883C18.4073 27.2102 18.028 27.6668 17.5841 27.7507C17.5517 27.7553 17.5239 27.7646 17.4916 27.774H17.2279C17.1493 27.7507 17.0661 27.7413 16.9874 27.7087C16.6082 27.5503 16.3029 27.2055 16.3076 26.6697C16.3076 25.5142 16.3076 24.3634 16.3076 23.2079V23.1053H15.7202C15.7202 23.1053 15.7202 23.1286 15.7202 23.138C15.7202 23.5806 15.7202 24.0279 15.7202 24.4705C15.7202 25.2113 15.7248 25.9522 15.7202 26.693C15.7202 27.1682 15.4843 27.5037 15.0588 27.6947C14.9756 27.732 14.8831 27.746 14.7998 27.7693H14.5547L14.5408 27.7646Z" fill="#B9794A"/>
<path d="M15.9931 12.552C17.1539 12.5334 18.1067 13.5118 18.0974 14.6813C18.0882 15.8228 17.14 16.7827 15.9746 16.7733C14.8646 16.764 13.8841 15.8182 13.9072 14.6161C13.9257 13.5025 14.8599 12.5334 15.9931 12.552Z" fill="#B9794A"/>
<path d="M3.20069 11.7597C3.10357 11.7597 3.02957 11.7597 2.96019 11.7597C2.21095 11.7597 1.46634 11.7597 0.717095 11.7597C0.661596 11.7597 0.610722 11.7597 0.555222 11.7597C0.00485382 11.7504 -0.0182709 11.7318 0.00947876 11.1867C0.00947876 11.1028 0.0788529 11.0003 0.143602 10.949C1.28134 10.1243 2.42833 9.30896 3.57069 8.48892C6.03116 6.72771 8.49163 4.9665 10.9521 3.20529C12.3257 2.22218 13.7039 1.25771 15.0591 0.251299C15.5354 -0.102807 16.502 -0.0701919 16.946 0.251299C19.943 2.42253 22.9585 4.57046 25.9693 6.72305C27.9303 8.1255 29.8913 9.52794 31.8522 10.9257C31.954 11.0003 32.0049 11.0702 32.0002 11.2053C32.0002 11.7458 32.0002 11.7551 31.4499 11.7597C30.7607 11.7644 30.0763 11.7644 29.3871 11.7597C29.2114 11.7597 29.1466 11.7924 29.1466 11.988C29.1513 16.9222 29.1466 21.8518 29.1466 26.786C29.1466 27.3637 29.1513 27.9415 29.1466 28.5239C29.1466 28.6869 29.2021 28.7289 29.3548 28.7242C29.7618 28.7149 30.1688 28.7242 30.5757 28.7242C30.918 28.7242 31.0475 28.8547 31.0521 29.1995C31.0521 29.9729 31.0521 30.7463 31.0521 31.5198C31.0521 31.8646 30.9226 31.995 30.5804 31.995C27.3614 31.995 24.1424 31.995 20.9235 31.995C14.6058 31.995 8.28813 31.995 1.97046 31.995C1.35071 31.995 1.29984 31.9438 1.29984 31.3194C1.29984 30.6252 1.29984 29.9356 1.29984 29.2414C1.29984 28.836 1.41546 28.7196 1.82708 28.7196C2.21558 28.7196 2.60407 28.7102 2.98794 28.7242C3.17294 28.7289 3.20994 28.6636 3.20994 28.4913C3.20994 25.9799 3.20994 23.4732 3.20994 20.9618C3.20994 17.9892 3.20994 15.0119 3.20994 12.0393C3.20994 11.9554 3.20994 11.8669 3.20994 11.7597H3.20069ZM16.1829 11.7597C13.112 11.7597 10.041 11.7597 6.9654 11.7597C6.79427 11.7597 6.72027 11.7924 6.72027 11.988C6.7249 17.486 6.7249 22.9793 6.72027 28.4773C6.72027 28.6683 6.76652 28.7289 6.96077 28.7289C8.55638 28.7196 10.152 28.7242 11.7476 28.7242C16.2939 28.7242 20.8449 28.7242 25.3912 28.7289C25.5808 28.7289 25.6271 28.6683 25.6224 28.4866C25.6132 27.6479 25.6132 26.8046 25.6132 25.9659C25.6132 21.3253 25.6132 16.68 25.6132 12.0393C25.6132 11.7597 25.6132 11.7597 25.3264 11.7597C22.274 11.7597 19.2215 11.7597 16.169 11.7597H16.1829Z" fill="#B9794A"/>
</g>
<defs>
<clipPath id="clip0_56_129">
<rect width="32" height="32" fill="white"/>
</clipPath>
</defs>
</svg>
