<svg width="166" height="171" viewBox="0 0 166 171" fill="none" xmlns="http://www.w3.org/2000/svg">
<g clip-path="url(#clip0_57_5975)">
<path d="M59.5345 84.0554C59.9893 85.1135 61.6099 84.7898 62.9549 86.3649C64.503 88.1767 63.8934 90.3461 64.5852 90.5442C65.5576 90.8196 67.9282 87.2008 68.9635 83.6834C71.0776 76.5036 67.7734 69.2369 64.9916 64.7048C64.7255 64.8353 61.1649 66.681 60.6666 70.8071C60.1586 75.0396 63.3564 77.7018 63.5548 77.8661C59.5587 81.5043 59.1572 83.1809 59.5345 84.0554Z" fill="#B3B3B3"/>
<path d="M108.034 45.2479H108.029C105.349 46.8279 102.253 46.5621 102.001 46.538C99.9885 46.3979 98.6243 45.6006 97.5019 44.9919C96.7182 44.557 93.8832 43.0592 93.5252 41.0493C93.4381 40.5903 93.5252 40.3342 93.6074 40.1941C94.1251 39.2471 96.0699 39.6723 96.1231 39.3824C96.1908 39.0297 93.6074 37.3434 91.2659 38.2856C89.0695 39.1698 88.2616 41.89 88.5616 42.1267C88.7744 42.3007 89.7565 41.0299 90.4483 41.344C90.8257 41.5131 90.9127 42.0881 90.9563 42.32C91.3627 44.6005 93.8154 47.9101 96.4908 49.3113C97.5938 49.8911 98.2614 49.9008 98.3533 50.4032C98.5227 51.3406 96.4376 52.6934 94.5121 53.1863C93.6123 53.4182 92.8963 53.4327 92.7269 53.4278C90.2113 53.3167 88.0778 51.1377 80.0518 48.0744C77.27 47.0163 73.9222 45.8036 71.5227 42.4746C71.4066 42.32 71.3195 42.1654 71.2324 42.0253C68.1894 36.8941 71.5275 30.6952 70.7583 30.3328C70.081 30.0139 66.68 33.8985 64.1111 40.4453C61.9244 46.0065 61.5325 50.4516 61.01 56.1335C60.3569 63.2167 59.3168 70.2708 58.9491 77.3781C58.2767 90.4137 53.1631 111.349 42.8246 128.269C30.3042 148.75 12.1478 160.056 0 165.912V111.731C1.28203 111.296 2.84465 110.702 4.59111 109.895C5.31679 109.561 6.07149 109.189 6.85039 108.779C8.70812 107.798 10.6965 106.585 12.7187 105.078C17.7936 101.304 21.3542 96.9944 23.986 92.9503C24.3779 92.356 24.7407 91.7714 25.0891 91.1916C25.5874 90.3606 26.0518 89.5489 26.4824 88.7613C29.627 82.9924 31.8088 77.209 33.5069 71.4014C33.7875 70.4302 34.0584 69.4591 34.3148 68.4879C36.2016 61.4 37.4884 54.283 39.0462 47.1468C39.2156 46.3544 39.3897 45.5668 39.5736 44.7744C40.812 39.3389 42.2586 33.8937 44.3098 28.434C44.5565 27.7769 44.8129 27.1149 45.079 26.4578C45.1322 26.3322 45.1806 26.2018 45.2387 26.0665C46.3223 23.4236 48.064 19.5921 50.8699 15.925C51.4456 15.1761 52.0649 14.432 52.7325 13.7072C54.7354 11.5282 57.1736 9.51825 60.1392 7.97697C60.1392 7.97697 60.1441 7.97697 60.1441 7.97214C60.7101 7.68224 61.2858 7.41651 61.2858 7.41651C61.9776 7.10245 62.6839 6.81739 63.4144 6.55648H63.4193C65.2964 5.88972 67.2702 5.40656 69.2876 5.1215H69.2973C75.659 4.23248 82.3981 5.33409 87.5988 8.78868C88.6293 9.46511 89.892 10.6488 90.1145 10.8421C94.5556 14.7364 96.8826 18.2441 98.2808 20.0898C103.888 27.5305 111.28 27.3807 112.891 33.4782C113.999 37.6865 111.744 43.0447 108.034 45.2479Z" fill="#50894D"/>
<path d="M91.5755 38.3436C91.5755 38.3436 91.5658 38.3388 91.561 38.3388C91.5804 38.3484 91.5949 38.3629 91.6094 38.3774C91.5997 38.3678 91.5852 38.3581 91.5755 38.3436ZM117.569 32.2461C116.215 27.1198 112.431 24.8538 109.093 22.8583C106.587 21.3557 104.222 19.9401 102.141 17.1812C101.962 16.9445 101.769 16.6787 101.556 16.3888C100.051 14.3451 97.5406 10.9243 93.3172 7.21845L93.2252 7.13631C92.4076 6.40191 91.3336 5.45974 90.2742 4.76399C84.3817 0.850398 76.4863 -0.763356 68.6054 0.338249C66.2543 0.671629 63.9611 1.2321 61.7986 2.00515C60.9133 2.31921 60.0618 2.66225 59.2733 3.02462C59.2007 3.05361 58.5621 3.34834 57.909 3.68655C46.69 9.51346 42.0989 20.9112 40.5895 24.6557C36.7628 34.1595 34.8131 43.5811 32.9312 52.6935C30.5123 64.4004 28.2288 75.46 22.2347 86.447C20.0529 90.4476 16.3906 96.3277 9.8305 101.203C8.08887 102.498 6.24082 103.652 4.30084 104.657C4.17022 104.725 4.0396 104.793 3.90414 104.86C2.64146 105.503 1.34008 106.078 0 106.59V116.751L1.28687 116.388C1.36911 116.364 1.45619 116.34 1.53843 116.311C2.85433 115.867 4.14603 115.369 5.40871 114.823C7.05841 114.113 8.65974 113.32 10.2127 112.451C12.0849 111.402 13.8894 110.233 15.6069 108.957C20.1448 105.585 23.5313 101.874 26.0856 98.4197C27.4064 96.6369 28.5094 94.9217 29.4334 93.3562C29.9124 92.5493 30.343 91.7859 30.73 91.0709C33.2215 86.5098 35.1373 81.9391 36.6854 77.3926C37.5175 74.9381 38.248 72.4885 38.9059 70.0486C40.2944 64.8643 41.3587 59.7186 42.4085 54.6454C42.4859 54.2637 42.5682 53.882 42.6456 53.5004C43.1294 51.157 43.6132 48.8427 44.126 46.5525C45.1129 42.1606 46.2062 37.846 47.6382 33.5362C48.2188 31.7823 48.8574 30.0236 49.5685 28.2649C49.5782 28.2359 49.5927 28.2118 49.6024 28.1828C50.2313 26.6173 51.5085 23.4816 53.7146 20.2589C54.566 19.0076 55.5626 17.7417 56.7189 16.5483C58.267 14.9393 60.1054 13.456 62.2679 12.3206C62.3017 12.3013 62.3404 12.282 62.3743 12.2626C62.8145 12.0307 63.2693 11.823 63.3032 11.8085C63.8353 11.5621 64.4207 11.3301 65.0448 11.1079C66.0801 10.7407 67.1589 10.4363 68.262 10.2092C68.6151 10.1319 68.9731 10.0643 69.336 10.0014C69.5392 9.96763 69.7472 9.93864 69.9552 9.90965C75.5139 9.13176 80.971 10.1899 84.9283 12.8183C85.3202 13.0743 85.9298 13.5768 86.7377 14.3064L86.9215 14.4707C90.3612 17.4904 92.4028 20.2686 93.7526 22.1094C93.9944 22.438 94.217 22.7375 94.4153 22.9985C97.6277 27.2551 101.227 29.41 104.115 31.1445C106.892 32.8066 107.894 33.4975 108.213 34.7103C108.769 36.812 107.453 39.9719 105.562 41.088C104.468 41.7354 102.915 41.7692 102.403 41.7257C102.383 41.7209 102.364 41.7209 102.345 41.7209C101.716 41.6774 101.232 41.4938 100.613 41.1749C100.753 40.8222 100.83 40.5178 100.869 40.3004C100.874 40.2859 100.874 40.2714 100.879 40.2569V40.2473C101.048 39.3293 101.15 37.1309 98.9387 35.3094C96.8488 33.5893 92.9882 32.3814 89.4566 33.8067C86.0362 35.1838 84.0914 38.5224 83.7286 41.0397C83.506 42.6051 83.8979 43.784 84.4058 44.6102C83.6028 44.2768 82.7271 43.9241 81.7741 43.5617L81.566 43.4796C79.2052 42.5809 76.9749 41.7306 75.4558 39.6675L75.4413 39.6433C75.4413 39.6433 75.4316 39.6288 75.4268 39.6192L75.3929 39.5612C74.2851 37.6865 74.9043 35.005 75.3155 33.2366C75.63 31.8741 76.5927 27.7286 72.8095 25.9602C71.5275 25.3563 70.0665 25.3225 68.7022 25.8636C64.8997 27.3807 61.1939 34.6329 59.6071 38.6818C57.1978 44.818 56.7382 49.7655 56.2109 55.4958L56.1915 55.6891C55.9593 58.2257 55.6642 60.8251 55.3836 63.3327C54.8805 67.826 54.358 72.4692 54.1161 77.1269C53.4582 89.8485 48.4365 109.813 38.6931 125.752C27.7886 143.595 12.0269 154.399 0 160.515V171L1.48038 170.517C1.68841 170.449 1.88676 170.367 2.08511 170.27C15.4956 163.806 34.1648 151.712 46.9513 130.787C57.5752 113.403 63.0613 91.5637 63.7821 77.6294C64.0047 73.2568 64.5126 68.7585 65.0013 64.4101C65.2867 61.8542 65.5866 59.2065 65.8285 56.5781L65.843 56.3848C66.2349 52.1475 66.5397 48.8379 67.5702 45.2625C67.5798 45.277 67.5895 45.2915 67.5992 45.3011C70.7873 49.7172 75.0253 51.331 78.1215 52.5099L78.3247 52.5872C81.9627 53.9738 84.2414 55.1334 86.0701 56.0659C88.3584 57.2303 90.1629 58.1532 92.5141 58.2546C92.5383 58.2546 92.5576 58.2595 92.577 58.2595C92.9156 58.2691 94.1444 58.2691 95.707 57.8681C99.1855 56.9839 102.635 54.6551 103.143 51.3938C104.952 51.3551 107.806 50.9927 110.491 49.408C116.118 46.0742 119.229 38.5417 117.569 32.2461Z" fill="#50894D"/>
<path d="M108.044 45.2672C105.368 46.8472 102.272 46.5814 102.016 46.5573C100.003 46.4171 98.6388 45.6199 97.5212 45.0063C96.7327 44.5763 93.9025 43.0785 93.5397 41.0637C93.4575 40.6047 93.5445 40.3535 93.6219 40.2085C94.1396 39.2615 96.0796 39.6867 96.1328 39.3968C96.2005 39.0441 93.6219 37.3579 91.2756 38.3001C89.0792 39.1842 88.2713 41.9044 88.5712 42.1412C88.7841 42.3151 89.7662 41.0444 90.4532 41.3536C90.8353 41.5227 90.9176 42.0977 90.9611 42.3296C91.3675 44.6101 93.8203 47.9198 96.4956 49.3258C97.5986 49.9056 98.2711 49.9152 98.3582 50.4177C98.5275 51.355 96.4424 52.7127 94.5169 53.2007C93.6219 53.4326 92.9011 53.4471 92.7318 53.4423C90.2161 53.3312 88.0826 51.1473 80.0566 48.0889C77.2749 47.0308 73.9271 45.818 71.5275 42.4939C71.4114 42.3344 71.3195 42.1847 71.2372 42.0397C68.1942 36.9086 71.5323 30.7096 70.7631 30.3472C70.0858 30.0284 66.6848 33.913 64.1159 40.4598C61.9341 46.021 61.5422 50.466 61.0149 56.1528C60.3618 63.2359 59.3216 70.2901 58.954 77.3974C58.2815 90.433 53.1727 111.368 42.8294 128.289C30.3188 148.779 12.1478 160.085 0 165.941V111.755C3.07203 110.711 7.80828 108.764 12.738 105.097C19.6223 99.9803 23.7151 93.878 26.4969 88.7758C37.7062 68.227 36.6563 47.4221 45.0935 26.4771C46.9948 21.7615 51.1312 12.6781 60.1537 7.99143C60.7198 7.6967 61.3003 7.43096 61.3003 7.43096C61.9921 7.11691 62.7033 6.83184 63.4338 6.57094C65.3109 5.89934 67.2847 5.42102 69.3021 5.13595C75.6735 4.24694 82.4127 5.34854 87.6133 8.7983C88.6438 9.47956 89.9113 10.6585 90.129 10.8517C94.5653 14.746 96.8923 18.2537 98.2953 20.0994C103.907 27.5352 111.295 27.3903 112.91 33.4878C114.018 37.6961 111.759 43.0592 108.044 45.2576V45.2672Z" fill="#5DA55B"/>
<path d="M107.56 32.3766C108.285 32.2075 110.071 34.4059 109.49 36.1163C109.103 37.2565 107.739 37.9668 107.42 37.7252C107.207 37.5658 107.589 37.0971 107.482 36.1356C107.39 35.2901 107.037 35.1451 106.945 34.3914C106.844 33.57 107.105 32.4781 107.56 32.3718V32.3766Z" fill="#50894D"/>
<path d="M90.5693 22.6313C91.4208 25.4191 90.4581 28.1731 88.4213 28.7964C86.3798 29.4197 84.0334 27.6707 83.1868 24.8877C83.0949 24.5881 83.0223 24.2885 82.9788 23.9841C84.1834 24.5978 85.4848 24.5446 86.2153 23.7522C87.1587 22.7279 86.7813 20.8581 85.3783 19.5729C85.1509 19.3651 84.9091 19.1864 84.6623 19.0366C84.8704 18.9061 85.0929 18.7998 85.3348 18.7274C87.3764 18.1041 89.7227 19.8531 90.5693 22.6313Z" fill="#386593"/>
<path d="M0.841785 137.739C0.575703 137.836 0.295108 137.904 0 137.942V107.89C1.30622 107.547 2.61244 107.199 3.91865 106.851C4.16538 107.88 4.39276 108.895 4.59111 109.895C4.92976 111.581 5.20068 113.229 5.40871 114.823C7.01487 127.037 4.94428 136.222 0.841785 137.739Z" fill="#50894D"/>
<path d="M37.7206 45.103C36.4627 49.4176 35.2049 53.7468 33.9567 58.0952C33.0908 61.1053 32.2296 64.1154 31.3782 67.1158C34.4454 68.6716 42.1037 72.1938 45.0886 69.4398C48.3155 66.4635 45.466 56.7375 37.7206 45.1079V45.103Z" fill="#50894D"/>
<path d="M22.2878 89.5295C24.2617 90.7712 35.2484 97.5355 39.0606 94.2548C42.4762 91.3075 39.5589 80.7601 31.4652 68.0579C29.4285 72.3966 27.4111 76.9287 25.447 81.6588C24.3391 84.321 23.2893 86.9446 22.2927 89.5343L22.2878 89.5295Z" fill="#50894D"/>
<path d="M43.1584 26.8638C42.2295 29.7579 41.3007 32.652 40.3718 35.5462C39.4816 38.3147 38.5867 41.088 37.6917 43.8565C39.5591 44.818 48.0398 49.0456 50.6571 46.3738C53.0615 43.9193 50.091 36.0825 43.1536 26.8638H43.1584Z" fill="#50894D"/>
<path d="M43.9082 25.2354C48.8863 28.5306 53.6468 29.8496 55.1175 28.1827C56.714 26.3708 54.8514 20.5101 49.6362 14.3933C48.7557 15.6689 47.8559 17.1038 46.9706 18.6983C45.6837 21.0223 44.6871 23.2351 43.9082 25.2306V25.2354Z" fill="#50894D"/>
<path d="M51.4844 12.5236C55.9449 17.0557 60.6908 18.6597 62.1663 17.3939C63.6467 16.1232 62.742 11.2191 58.8814 6.1604C57.701 6.85132 56.3222 7.77899 54.8999 9.00138C53.4679 10.2286 52.3455 11.4558 51.4844 12.5236Z" fill="#50894D"/>
<path d="M61.5181 4.24699C64.4159 8.16059 67.6283 10.5764 68.949 10.2285C70.26 9.88064 70.1439 6.69178 68.383 2.60425C66.0947 3.15022 63.8064 3.70102 61.5181 4.24699Z" fill="#50894D"/>
<path d="M4.37329 105.537C11.7607 115.847 20.7591 121.172 24.7793 119.055C29.0269 116.818 29.7962 105.169 23.3473 91.5732C21.1026 94.3176 17.7548 97.7963 13.0475 100.951C9.90778 103.058 6.90832 104.517 4.37329 105.537Z" fill="#50894D"/>
<path d="M31.6782 60.5499C33.0037 64.9515 35.7323 71.8172 41.6538 78.1804C48.4848 85.5292 57.2075 89.6748 57.9332 88.7519C58.6879 87.7904 50.4684 81.7799 41.0491 68.7056C37.769 64.1494 35.3743 60.1633 33.8165 57.4238C33.1005 58.4675 32.3893 59.5111 31.6733 60.5547L31.6782 60.5499Z" fill="#50894D"/>
<path d="M53.0275 74.3149C53.5935 75.1315 54.1596 75.948 54.7207 76.7646C52.7275 76.581 50.7295 76.3925 48.7363 76.2089C50.1635 75.576 51.5955 74.9479 53.0227 74.3149H53.0275Z" fill="#B3B3B3"/>
<path d="M46.1819 70.3434C49.5346 73.2713 52.5776 75.3827 54.7256 76.7597C54.5417 77.9821 54.4159 79.5862 54.5901 81.456C54.7788 83.4998 55.2674 85.186 55.7222 86.4084C51.5036 84.1424 45.6111 80.2047 40.5362 73.653C34.3486 65.6664 31.8087 56.5588 32.8053 56.0128C33.7196 55.5055 37.1981 62.492 46.1868 70.3434H46.1819Z" fill="#4A7CB9"/>
<path d="M56.2059 84.3213L60.2455 81.5818C62.4371 91.8586 64.1303 99.3572 65.214 104.078C67.1443 112.494 68.4747 117.911 66.2396 124.071C65.7704 125.371 64.8802 127.037 63.1047 130.381C59.1183 137.88 57.1251 141.629 55.248 141.402C54.2127 141.276 53.7193 139.986 51.131 132.159C48.7944 125.086 47.6236 121.515 47.4494 119.602C47.0237 114.954 48.1461 112.006 50.2506 105.281C51.7503 100.493 53.8741 93.3854 56.2011 84.3165L56.2059 84.3213Z" fill="#4A7CB9"/>
<path d="M53.3808 79.4317C53.2405 79.9583 52.926 81.2001 53.2695 82.7027C53.7533 84.7996 55.2095 86.022 55.7175 86.4134C56.2206 85.9399 57.2462 84.8334 57.551 83.1472C57.9719 80.828 56.8592 78.3591 54.7209 76.7646C54.3242 77.2671 53.7146 78.1658 53.3759 79.4317H53.3808Z" fill="#386593"/>
<path d="M60.4342 85.6451C59.1958 84.8382 57.3138 85.0991 55.698 86.2877C55.727 87.0849 55.9351 89.8631 58.1169 92.3127C60.0521 94.4869 62.4081 95.1198 63.2354 95.3034C62.6403 92.4673 62.0404 89.6311 61.4454 86.7998C61.1164 86.1621 60.71 85.8238 60.4342 85.6451Z" fill="#386593"/>
<path d="M59.5344 84.0556C59.9891 85.1138 61.6098 84.79 62.9547 86.3651C64.5029 88.177 63.8933 90.3464 64.5851 90.5445C65.5575 90.8199 67.928 87.201 68.9633 83.6836C71.0775 76.5038 67.7732 69.2371 64.9915 64.7051C64.5125 69.0922 64.0336 73.4793 63.5546 77.8664C59.6021 81.4128 59.1377 83.1376 59.5344 84.0556Z" fill="#B3B3B3"/>
<path d="M65.156 83.07C64.3819 85.6839 62.5145 87.2203 61.6582 87.8339C61.2325 88.0659 60.202 88.5442 58.8426 88.4379C56.9945 88.2929 55.8383 87.1624 55.548 86.858C55.8963 85.5534 56.2737 83.4324 55.9157 80.8668C55.6738 79.1564 55.1755 77.7697 54.7256 76.7648C55.6303 76.4314 57.0332 76.0352 58.7797 75.9917C60.5165 75.9482 61.9291 76.2768 62.8483 76.5667C63.3756 76.8131 64.4061 77.3832 65.0544 78.5379C66.0026 80.229 65.4753 82.0119 65.1608 83.07H65.156Z" fill="#4A7CB9"/>
<path d="M53.0275 74.315C50.449 76.3733 47.7011 79.3592 47.2415 83.2728C46.719 87.7469 49.2734 90.4719 48.2623 91.4914C46.4142 93.366 33.7294 87.9546 28.4029 78.2625C19.5497 62.1491 34.7889 41.0253 35.4952 40.0735C35.0404 42.1752 34.5857 44.2721 34.1358 46.3739C34.7695 50.4711 36.724 59.1583 43.7679 66.9034C46.9657 70.4208 50.3329 72.7738 53.0275 74.315Z" fill="white"/>
<path d="M120.086 63.7584C122.137 63.0486 123.953 63.0059 125.534 63.6303C127.108 64.2358 128.231 65.5087 128.903 67.4491C129.528 69.2563 129.419 70.8812 128.575 72.3236C127.75 73.7594 126.348 74.8412 124.368 75.5689L125.247 78.1086L120.574 79.7258L118.609 74.0472L120.554 73.3742C121.947 72.8921 122.964 72.3268 123.607 71.6785C124.242 71.0112 124.386 70.1734 124.037 69.1651C123.813 68.5183 123.455 68.0778 122.962 67.8436C122.469 67.6094 121.913 67.5994 121.294 67.8137C120.598 68.0547 120.119 68.4548 119.857 69.014C119.608 69.5474 119.593 70.128 119.81 70.7558L115.137 72.373C114.703 71.245 114.586 70.1245 114.786 69.0115C114.999 67.8728 115.555 66.8496 116.454 65.942C117.347 65.0153 118.557 64.2874 120.086 63.7584ZM126.318 80.3581L128.007 85.2377L122.841 87.0256L121.152 82.146L126.318 80.3581Z" fill="#4A7CB9"/>
</g>
<path d="M154.96 24.8265C158.075 26.2235 160.201 28.1316 161.34 30.5508C162.491 32.9412 162.406 35.6097 161.084 38.5564C159.853 41.3009 157.977 43.0446 155.455 43.7874C152.963 44.5435 150.191 44.2717 147.139 42.972L145.409 46.8287L138.313 43.6458L142.181 35.0224L145.134 36.3469C147.249 37.2958 149.024 37.745 150.459 37.6944C151.906 37.6149 152.973 36.8096 153.66 35.2785C154.101 34.2962 154.165 33.4055 153.853 32.6062C153.541 31.8069 152.915 31.1963 151.974 30.7746C150.917 30.3001 149.937 30.2423 149.034 30.6011C148.175 30.9442 147.531 31.5924 147.103 32.5457L140.007 29.3628C140.726 27.6031 141.8 26.1934 143.228 25.1337C144.699 24.0582 146.438 23.4851 148.446 23.4143C150.467 23.3145 152.639 23.7853 154.96 24.8265ZM144.212 50.56L140.888 57.9701L133.043 54.4511L136.366 47.041L144.212 50.56Z" fill="#4A7CB9"/>
<defs>
<clipPath id="clip0_57_5975">
<rect width="162" height="171" fill="white"/>
</clipPath>
</defs>
</svg>
