<svg width="21" height="20" viewBox="0 0 21 20" fill="none" xmlns="http://www.w3.org/2000/svg">
<g clip-path="url(#clip0_6_4039)">
<path d="M5.86523 20.0459H15.2344C17.124 20.0459 18.0996 19.0527 18.0996 17.1543V9.17383C18.0996 7.94336 17.9414 7.38086 17.1768 6.59863L12.5801 1.93164C11.833 1.17578 11.2178 1 10.1104 1H5.86523C3.98438 1 3 1.99316 3 3.90039V17.1543C3 19.0527 3.98438 20.0459 5.86523 20.0459ZM6.01465 18.2881C5.1709 18.2881 4.74902 17.8486 4.74902 17.04V4.00586C4.74902 3.20605 5.1709 2.75781 6.02344 2.75781H9.75V7.53906C9.75 8.81348 10.374 9.42871 11.6396 9.42871H16.3506V17.04C16.3506 17.8486 15.9287 18.2881 15.0762 18.2881H6.01465ZM11.8066 7.89062C11.4375 7.89062 11.2793 7.73242 11.2793 7.37207V2.98633L16.1133 7.89062H11.8066ZM13.6436 11.7314H7.29785C6.96387 11.7314 6.72656 11.9688 6.72656 12.2764C6.72656 12.5928 6.96387 12.8389 7.29785 12.8389H13.6436C13.96 12.8389 14.1973 12.5928 14.1973 12.2764C14.1973 11.9688 13.96 11.7314 13.6436 11.7314ZM13.6436 14.667H7.29785C6.96387 14.667 6.72656 14.9131 6.72656 15.2295C6.72656 15.5371 6.96387 15.7744 7.29785 15.7744H13.6436C13.96 15.7744 14.1973 15.5371 14.1973 15.2295C14.1973 14.9131 13.96 14.667 13.6436 14.667Z" fill="#9D9D9D"/>
</g>
<defs>
<clipPath id="clip0_6_4039">
<rect width="20" height="20" fill="white" transform="translate(0.5)"/>
</clipPath>
</defs>
</svg>
