<svg width="45" height="55" viewBox="0 0 45 55" fill="none" xmlns="http://www.w3.org/2000/svg">
<path d="M8.42248 55H35.9635C41.5182 55 44.386 52.132 44.386 46.6497V23.934H25.0091C21.7796 23.934 20.2295 22.4112 20.2295 19.2386V0H8.42248C2.89361 0 0 2.86802 0 8.37563V46.6497C0 52.132 2.89361 55 8.42248 55ZM25.5 20.2284H44.1276C43.9726 19.0609 43.12 17.9695 41.7765 16.6244L27.6443 2.56345C26.3526 1.26904 25.1899 0.406091 24.0015 0.253807V18.7563C24.0273 19.7462 24.5182 20.2284 25.5 20.2284ZM12.1687 35.1777C11.0577 35.1777 10.2568 34.3909 10.2568 33.3756C10.2568 32.3604 11.0577 31.5736 12.1687 31.5736H32.2948C33.3541 31.5736 34.1808 32.3604 34.1808 33.3756C34.1808 34.3909 33.3541 35.1777 32.2948 35.1777H12.1687ZM12.1687 44.6954C11.0577 44.6954 10.2568 43.9086 10.2568 42.8934C10.2568 41.8782 11.0577 41.0914 12.1687 41.0914H32.2948C33.3541 41.0914 34.1808 41.8782 34.1808 42.8934C34.1808 43.9086 33.3541 44.6954 32.2948 44.6954H12.1687Z" fill="#4A7CB9"/>
</svg>
