<svg width="39" height="49" viewBox="0 0 39 49" fill="none" xmlns="http://www.w3.org/2000/svg">
<path d="M7.40047 49H31.5995C36.4802 49 39 46.4449 39 41.5607V21.0291C39 17.8634 38.5914 16.4162 36.6164 14.4038L24.7439 2.39686C22.8143 0.452238 21.2253 0 18.365 0H7.40047C2.54249 0 0 2.55515 0 7.46193V41.5607C0 46.4449 2.54249 49 7.40047 49ZM7.78638 44.4776C5.6071 44.4776 4.51746 43.347 4.51746 41.2667V7.73327C4.51746 5.67559 5.6071 4.52238 7.80908 4.52238H17.4342V16.8233C17.4342 20.102 19.046 21.6848 22.3149 21.6848H34.4825V41.2667C34.4825 43.347 33.3929 44.4776 31.1909 44.4776H7.78638ZM22.7462 17.7277C21.7928 17.7277 21.3842 17.3207 21.3842 16.3936V5.11029L33.8696 17.7277H22.7462ZM27.4907 27.6091H11.1007C10.2381 27.6091 9.62515 28.2197 9.62515 29.0111C9.62515 29.8251 10.2381 30.4582 11.1007 30.4582H27.4907C28.3079 30.4582 28.9208 29.8251 28.9208 29.0111C28.9208 28.2197 28.3079 27.6091 27.4907 27.6091ZM27.4907 35.1615H11.1007C10.2381 35.1615 9.62515 35.7946 9.62515 36.6087C9.62515 37.4001 10.2381 38.0106 11.1007 38.0106H27.4907C28.3079 38.0106 28.9208 37.4001 28.9208 36.6087C28.9208 35.7946 28.3079 35.1615 27.4907 35.1615Z" fill="#4A7CB9"/>
</svg>
