<svg width="21" height="27" viewBox="0 0 21 27" fill="none" xmlns="http://www.w3.org/2000/svg">
<path d="M3.98487 27H17.0151C19.6432 27 21 25.5921 21 22.9008V11.7494H11.8324C10.3044 11.7494 9.57101 11.0018 9.57101 9.44439V0H3.98487C1.36903 0 0 1.40794 0 4.11168V22.9008C0 25.5921 1.36903 27 3.98487 27ZM12.0646 9.93032H20.8778C20.8044 9.35718 20.401 8.82141 19.7654 8.16105L13.0792 1.25842C12.468 0.622981 11.9179 0.199354 11.3556 0.124596V9.20766C11.3679 9.69359 11.6001 9.93032 12.0646 9.93032ZM5.75728 17.269C5.23166 17.269 4.85274 16.8828 4.85274 16.3844C4.85274 15.886 5.23166 15.4998 5.75728 15.4998H15.2794C15.7806 15.4998 16.1717 15.886 16.1717 16.3844C16.1717 16.8828 15.7806 17.269 15.2794 17.269H5.75728ZM5.75728 21.9414C5.23166 21.9414 4.85274 21.5551 4.85274 21.0568C4.85274 20.5584 5.23166 20.1721 5.75728 20.1721H15.2794C15.7806 20.1721 16.1717 20.5584 16.1717 21.0568C16.1717 21.5551 15.7806 21.9414 15.2794 21.9414H5.75728Z" fill="#B9AE4A"/>
</svg>
