<svg width="26" height="20" viewBox="0 0 26 20" fill="none" xmlns="http://www.w3.org/2000/svg">
<path d="M19.1851 18.0962C19.3601 19.4939 20.1705 20.1501 21.69 19.9711L23.4673 19.7836C24.9868 19.6047 25.6407 18.8461 25.4749 17.4485L23.9922 5.03115C23.8265 3.63346 22.9977 2.9687 21.4874 3.1562L19.71 3.34369C19.3141 3.3863 18.9825 3.47153 18.7063 3.59937V3.12211C18.7063 1.71589 17.9511 1 16.4316 1H13.9636C12.4349 1 11.6798 1.71589 11.6798 3.12211V6.46293C11.5232 6.44589 11.3575 6.43737 11.1733 6.43737H6.9187C6.73452 6.43737 6.55954 6.44589 6.40299 6.46293V5.53398C6.40299 4.11924 5.64785 3.40335 4.12836 3.40335H2.78384C1.25514 3.40335 0.5 4.11924 0.5 5.53398V17.8234C0.5 19.2297 1.25514 19.9456 2.78384 19.9456H16.4316C17.9511 19.9456 18.7063 19.2297 18.7063 17.8234V14.1247L19.1851 18.0962ZM14.2307 2.6278H16.1646C16.6895 2.6278 16.9473 2.88348 16.9473 3.34369V17.5933C16.9473 18.0621 16.6895 18.3178 16.1646 18.3178H13.4479V3.34369C13.4479 2.88348 13.7058 2.6278 14.2307 2.6278ZM20.9072 17.6956L19.4706 5.72147C19.4154 5.26126 19.6456 5.00558 20.1613 4.9374L21.4045 4.80104C21.9202 4.73286 22.2149 4.97149 22.2702 5.42319L23.7068 17.3973C23.762 17.8661 23.5318 18.1217 23.0161 18.1899L21.7637 18.3263C21.248 18.3945 20.9625 18.1643 20.9072 17.6956ZM3.04169 18.3178C2.52599 18.3178 2.25893 18.0621 2.25893 17.5933V5.74704C2.25893 5.28683 2.52599 5.03967 3.04169 5.03967H3.85209C4.38621 5.03967 4.63486 5.28683 4.63486 5.74704V18.3178H3.04169ZM7.18576 8.06517H10.897C11.4311 8.06517 11.6798 8.31232 11.6798 8.77253V18.3178H6.40299V8.77253C6.40299 8.31232 6.66084 8.06517 7.18576 8.06517ZM7.75672 10.2128H10.3629C10.6944 10.2128 10.9523 9.96569 10.9523 9.65888C10.9523 9.35207 10.6944 9.11343 10.3629 9.11343H7.75672C7.40678 9.11343 7.15813 9.35207 7.15813 9.65888C7.15813 9.96569 7.41599 10.2128 7.75672 10.2128ZM7.75672 17.278H10.3629C10.6944 17.278 10.9523 17.0309 10.9523 16.7155C10.9523 16.4172 10.6944 16.1701 10.3629 16.1701H7.75672C7.41599 16.1701 7.15813 16.4172 7.15813 16.7155C7.15813 17.0309 7.40678 17.278 7.75672 17.278Z" fill="#4A7CB9"/>
</svg>
