<svg width="92" height="50" viewBox="0 0 92 50" fill="none" xmlns="http://www.w3.org/2000/svg">
<path d="M0 2.17253C0 1.65123 0.184768 1.20581 0.554299 0.836276C0.92383 0.466745 1.36925 0.281982 1.89055 0.281982H6.16985C6.965 0.281982 7.71891 0.433756 8.42828 0.737299C9.13764 1.04084 9.75627 1.45821 10.2858 1.98612C10.8137 2.51402 11.2311 3.13429 11.5346 3.84366C11.8382 4.55303 11.99 5.31354 11.99 6.12353C11.99 6.93518 11.8382 7.69074 11.5346 8.39351C11.2311 9.09628 10.8137 9.71161 10.2858 10.2395C9.75792 10.7674 9.13764 11.1848 8.42828 11.4883C7.71891 11.7919 6.965 11.9453 6.16985 11.9453H3.80254V14.6607C3.80254 15.1968 3.61777 15.6489 3.24824 16.0184C2.87871 16.3879 2.4267 16.5727 1.89055 16.5727C1.36925 16.5727 0.92383 16.3879 0.554299 16.0184C0.184768 15.6489 0 15.1968 0 14.6607V2.17253ZM3.80089 3.80078V8.42651H5.8861C6.20449 8.42651 6.50473 8.36547 6.78683 8.24174C7.06893 8.11802 7.31143 7.95139 7.51435 7.74188C7.71726 7.53237 7.87893 7.28987 8.00265 7.01437C8.12473 6.73887 8.18742 6.44192 8.18742 6.12353C8.18742 5.80514 8.12638 5.50491 8.00265 5.22281C7.87893 4.94071 7.71726 4.6949 7.51435 4.48539C7.31143 4.27588 7.06893 4.10927 6.78683 3.98554C6.50473 3.86181 6.20449 3.80078 5.8861 3.80078H3.80089Z" fill="white"/>
<path d="M25.8887 13.3345C26.1065 13.5077 26.2682 13.7189 26.377 13.9647C26.4859 14.2105 26.5404 14.4646 26.5404 14.7252C26.5404 14.9281 26.5008 15.1343 26.4216 15.3438C26.3424 15.5534 26.2269 15.753 26.0735 15.941C25.9217 16.1291 25.7287 16.2809 25.4977 16.3964C25.2668 16.5118 24.9979 16.5696 24.6943 16.5696C24.4766 16.5696 24.2605 16.5366 24.0427 16.4722C23.825 16.4063 23.6303 16.2957 23.4571 16.1357L18.5278 11.9009H18.31V14.6592C18.31 15.1954 18.1253 15.6474 17.7557 16.0169C17.3862 16.3865 16.9342 16.5712 16.3981 16.5712C15.8768 16.5712 15.4313 16.3865 15.0618 16.0169C14.6923 15.6474 14.5075 15.1954 14.5075 14.6592V2.17107C14.5075 1.64976 14.6923 1.20434 15.0618 0.834811C15.4313 0.465281 15.8768 0.280518 16.3981 0.280518H20.6114C21.4082 0.280518 22.1604 0.432291 22.8698 0.735834C23.5792 1.03938 24.2011 1.46005 24.7372 1.9962C25.2717 2.53235 25.6924 3.15428 25.9976 3.86365C26.3012 4.57302 26.4529 5.32693 26.4529 6.12208C26.4529 7.25212 26.1411 8.21883 25.5192 9.02223C24.8956 9.82563 23.9916 10.4377 22.8038 10.8583L25.8887 13.3345ZM18.3084 3.80096V8.42669H20.5668C20.8852 8.42669 21.1822 8.36566 21.4577 8.24193C21.7332 8.1182 21.9757 7.95158 22.1852 7.74207C22.3947 7.53256 22.5613 7.29006 22.685 7.01456C22.8088 6.73906 22.8698 6.44211 22.8698 6.12372C22.8698 5.80533 22.8088 5.50509 22.685 5.223C22.5613 4.9409 22.3947 4.69509 22.1852 4.48558C21.9757 4.27607 21.7332 4.10945 21.4577 3.98573C21.1822 3.862 20.8852 3.80096 20.5668 3.80096H18.3084Z" fill="white"/>
<path d="M33.7824 16.1917C32.7612 15.7513 31.8721 15.1491 31.1116 14.3886C30.351 13.6281 29.7506 12.734 29.3084 11.7062C28.8663 10.6785 28.6453 9.58471 28.6453 8.42662C28.6453 7.26854 28.8663 6.1748 29.3084 5.14704C29.7506 4.11928 30.351 3.22515 31.1116 2.46464C31.8721 1.70413 32.7629 1.10364 33.7824 0.661528C34.8036 0.219411 35.8924 0 37.0504 0C38.2085 0 39.3023 0.22106 40.33 0.661528C41.3578 1.10364 42.2519 1.70413 43.0124 2.46464C43.7729 3.22515 44.3734 4.11928 44.8155 5.14704C45.2577 6.1748 45.4771 7.26854 45.4771 8.42662C45.4771 9.58471 45.256 10.6785 44.8155 11.7062C44.3734 12.734 43.7729 13.6281 43.0124 14.3886C42.2519 15.1491 41.3578 15.7496 40.33 16.1917C39.3023 16.6338 38.2085 16.8532 37.0504 16.8532C35.8924 16.8532 34.8036 16.6322 33.7824 16.1917ZM32.8058 10.2182C33.045 10.7758 33.3733 11.2641 33.794 11.6848C34.2146 12.1054 34.7029 12.4337 35.2605 12.6729C35.8181 12.9121 36.4153 13.0309 37.0521 13.0309C37.6889 13.0309 38.291 12.9105 38.8552 12.6729C39.4194 12.4337 39.9127 12.1038 40.3317 11.6848C40.7524 11.2641 41.0806 10.7758 41.3198 10.2182C41.5591 9.66059 41.6778 9.06341 41.6778 8.42662C41.6778 7.78984 41.5591 7.19266 41.3198 6.63506C41.0806 6.07747 40.7507 5.58916 40.3317 5.16848C39.9127 4.74781 39.4194 4.41623 38.8552 4.16877C38.291 3.92297 37.6889 3.79924 37.0521 3.79924C36.4153 3.79924 35.8181 3.92297 35.2605 4.16877C34.7029 4.41458 34.2146 4.74781 33.794 5.16848C33.3733 5.58916 33.045 6.07747 32.8058 6.63506C32.5666 7.19266 32.4478 7.78984 32.4478 8.42662C32.4478 9.06341 32.5666 9.66059 32.8058 10.2182Z" fill="white"/>
<path d="M59.2917 13.8457C58.9585 14.5337 58.5065 15.1011 57.934 15.5499C57.3616 15.9986 56.6968 16.3285 55.9363 16.538C55.1758 16.7475 54.3691 16.8531 53.5145 16.8531C52.8051 16.8531 52.0991 16.7409 51.3963 16.5166C50.6935 16.2922 50.0634 15.9953 49.5074 15.6258C48.9498 15.2562 48.4978 14.8372 48.1497 14.367C47.8016 13.8969 47.6284 13.4086 47.6284 12.9005C47.6284 12.394 47.8049 11.9634 48.1613 11.6087C48.5159 11.2541 48.9465 11.0759 49.453 11.0759C49.8291 11.0759 50.1656 11.1914 50.4626 11.424C50.7595 11.6566 51.0713 11.9123 51.3963 12.196C51.7229 12.4781 52.0875 12.7355 52.4934 12.9665C52.8992 13.1974 53.3842 13.3145 53.9484 13.3145C54.3245 13.3145 54.6429 13.2469 54.9052 13.1083C55.1659 12.9714 55.3754 12.8081 55.5354 12.62C55.6938 12.4319 55.8109 12.2373 55.8835 12.0344C55.9561 11.8315 55.9924 11.6582 55.9924 11.5131C55.9924 11.0644 55.8043 10.6981 55.4282 10.416C55.052 10.1339 54.6248 9.91287 54.1463 9.7545L52.3003 9.1903C51.7493 9.01709 51.2247 8.80593 50.7265 8.56012C50.2267 8.31432 49.7895 8.01737 49.4134 7.66928C49.0373 7.3212 48.737 6.91703 48.5126 6.45346C48.2883 5.9899 48.1761 5.462 48.1761 4.86811C48.1761 4.02842 48.3279 3.30091 48.6314 2.68557C48.935 2.07024 49.3474 1.56378 49.8687 1.16455C50.39 0.766977 50.9905 0.473339 51.6718 0.285275C52.3515 0.0972099 53.0691 0.00317383 53.8214 0.00317383C54.6033 0.00317383 55.3193 0.0939109 55.9709 0.275377C56.6225 0.456843 57.1834 0.696043 57.6552 0.991337C58.1254 1.28828 58.4916 1.62482 58.7523 2.00095C59.0129 2.37708 59.1433 2.76146 59.1433 3.15244C59.1433 3.77437 58.9865 4.21318 58.6764 4.46559C58.3646 4.71964 58.0215 4.84501 57.6453 4.84501C57.3698 4.84501 57.1059 4.79388 56.8518 4.69324C56.5978 4.59261 56.3916 4.46229 56.2332 4.30227C56.1177 4.18679 55.9725 4.05647 55.7993 3.91129C55.6261 3.76777 55.4298 3.6292 55.2137 3.49887C54.9976 3.36854 54.765 3.25966 54.5192 3.17388C54.2734 3.08644 54.0193 3.04355 53.7587 3.04355C53.2951 3.04355 52.8827 3.19203 52.5214 3.48897C52.1585 3.78592 51.9787 4.15874 51.9787 4.60746C51.9787 4.75263 52.0001 4.89451 52.043 5.03143C52.0859 5.17 52.1667 5.29538 52.2822 5.41086C52.3977 5.52634 52.561 5.64182 52.7705 5.75895C52.98 5.87443 53.2522 5.9833 53.5854 6.08393L55.5189 6.66957C56.1128 6.84279 56.6704 7.06055 57.1917 7.3212C57.713 7.58185 58.165 7.90025 58.5494 8.27638C58.9321 8.65416 59.2373 9.09462 59.4616 9.60108C59.686 10.1075 59.7982 10.7014 59.7982 11.3827C59.7916 12.3363 59.625 13.1578 59.2917 13.8457Z" fill="white"/>
<path d="M72.9313 0.281982C73.4229 0.281982 73.8436 0.451897 74.1917 0.793383C74.5398 1.13322 74.713 1.55059 74.713 2.0422C74.713 2.53381 74.5398 2.95118 74.1917 3.29102C73.8436 3.63085 73.4246 3.80242 72.9313 3.80242H69.7161V14.6623C69.7161 15.1985 69.528 15.6505 69.1519 16.02C68.7757 16.3896 68.327 16.5743 67.8057 16.5743C67.2844 16.5743 66.839 16.3896 66.4695 16.02C66.0999 15.6505 65.9152 15.1985 65.9152 14.6623V3.80242H62.6785C62.1869 3.80242 61.7695 3.6325 61.4297 3.29102C61.0898 2.95118 60.9183 2.53381 60.9183 2.0422C60.9183 1.55059 61.0882 1.13322 61.4297 0.793383C61.7695 0.453546 62.1869 0.281982 62.6785 0.281982H72.9313Z" fill="white"/>
<path d="M80.3037 16.1917C79.2825 15.7513 78.3934 15.1491 77.6329 14.3886C76.8723 13.6281 76.2719 12.734 75.8297 11.7062C75.3876 10.6785 75.1682 9.58471 75.1682 8.42662C75.1682 7.26854 75.3893 6.1748 75.8297 5.14704C76.2719 4.11928 76.8723 3.22515 77.6329 2.46464C78.3934 1.70413 79.2842 1.10364 80.3037 0.661528C81.3249 0.219411 82.4137 0 83.5734 0C84.7315 0 85.8236 0.22106 86.853 0.661528C87.8807 1.10364 88.7749 1.70413 89.5354 2.46464C90.2959 3.22515 90.8964 4.11928 91.3385 5.14704C91.7806 6.1748 92 7.26854 92 8.42662C92 9.58471 91.7789 10.6785 91.3385 11.7062C90.8964 12.734 90.2959 13.6281 89.5354 14.3886C88.7749 15.1491 87.8807 15.7496 86.853 16.1917C85.8236 16.6338 84.7315 16.8532 83.5734 16.8532C82.4153 16.8532 81.3249 16.6322 80.3037 16.1917ZM79.3271 10.2182C79.5663 10.7758 79.8946 11.2641 80.3153 11.6848C80.7343 12.1054 81.2242 12.4337 81.7818 12.6729C82.3378 12.9121 82.9366 13.0309 83.5734 13.0309C84.2102 13.0309 84.8107 12.9105 85.3765 12.6729C85.9407 12.4337 86.434 12.1038 86.853 11.6848C87.272 11.2641 87.6019 10.7758 87.8411 10.2182C88.0803 9.66059 88.1991 9.06341 88.1991 8.42662C88.1991 7.78984 88.0803 7.19266 87.8411 6.63506C87.6019 6.07747 87.272 5.58916 86.853 5.16848C86.4323 4.74781 85.9407 4.41623 85.3765 4.16877C84.8123 3.92297 84.2118 3.79924 83.5734 3.79924C82.9366 3.79924 82.3378 3.92297 81.7818 4.16877C81.2242 4.41458 80.7359 4.74781 80.3153 5.16848C79.8946 5.58916 79.5663 6.07747 79.3271 6.63506C79.0879 7.19266 78.9691 7.78984 78.9691 8.42662C78.9691 9.06341 79.0879 9.66059 79.3271 10.2182Z" fill="white"/>
<path d="M0.971705 48.3177C0.417408 47.7634 0.140259 47.0953 0.140259 46.315V27.5497C0.140259 26.7678 0.417408 26.0997 0.971705 25.547C1.526 24.9927 2.19412 24.7156 2.97443 24.7156H10.6306C12.2589 24.7156 13.7799 25.0472 15.192 25.7087C16.6042 26.3719 17.82 27.2611 18.8412 28.3795C19.8623 29.498 20.6657 30.7963 21.2514 32.2728C21.837 33.7493 22.1306 35.3033 22.1306 36.9315C22.1306 38.5598 21.837 40.1138 21.2514 41.5903C20.6657 43.0667 19.8607 44.365 18.8412 45.4835C17.82 46.602 16.6042 47.4929 15.192 48.1544C13.7799 48.8176 12.2605 49.1475 10.6306 49.1475H2.97443C2.19247 49.1492 1.526 48.872 0.971705 48.3177ZM5.84159 29.9929V43.8388H9.91468C10.827 43.8388 11.6798 43.654 12.4717 43.2845C13.2636 42.915 13.9548 42.4168 14.5404 41.7866C15.1261 41.1564 15.588 40.4289 15.9245 39.604C16.261 38.7792 16.4293 37.8999 16.4293 36.9645C16.4293 36.0308 16.266 35.1466 15.941 34.3102C15.6144 33.4738 15.1591 32.7364 14.5734 32.0946C13.9878 31.4546 13.2982 30.9448 12.5047 30.5637C11.7112 30.1843 10.8484 29.9929 9.91468 29.9929H5.84159Z" fill="white"/>
<path d="M40.5858 48.5802C39.0549 47.9187 37.7186 47.0163 36.5787 45.8764C35.4387 44.7364 34.5364 43.3952 33.8748 41.8528C33.2117 40.312 32.8817 38.6705 32.8817 36.9334C32.8817 35.1963 33.2133 33.5565 33.8748 32.014C34.5364 30.4715 35.4387 29.1304 36.5787 27.9904C37.7186 26.8505 39.0549 25.9498 40.5858 25.2866C42.1167 24.625 43.7515 24.2935 45.4886 24.2935C47.2258 24.2935 48.8656 24.625 50.408 25.2866C51.9505 25.9498 53.2917 26.8505 54.4316 27.9904C55.5716 29.1304 56.4723 30.4715 57.1355 32.014C57.7986 33.5565 58.1286 35.1963 58.1286 36.9334C58.1286 38.6705 57.797 40.3103 57.1355 41.8528C56.4723 43.3952 55.5716 44.7364 54.4316 45.8764C53.2917 47.0163 51.9505 47.9187 50.408 48.5802C48.8656 49.2417 47.2258 49.5733 45.4886 49.5733C43.7515 49.5733 42.1183 49.2417 40.5858 48.5802ZM39.1208 39.6207C39.4788 40.4571 39.9737 41.1896 40.6039 41.8198C41.2341 42.45 41.9666 42.9432 42.803 43.3028C43.6394 43.6608 44.5351 43.8406 45.4903 43.8406C46.4455 43.8406 47.3479 43.6608 48.1941 43.3028C49.0404 42.9449 49.7795 42.45 50.4097 41.8198C51.0399 41.1896 51.5331 40.4571 51.8927 39.6207C52.2524 38.7843 52.4306 37.8886 52.4306 36.9334C52.4306 35.9782 52.2507 35.0824 51.8927 34.246C51.5348 33.4097 51.0399 32.6772 50.4097 32.047C49.7795 31.4168 49.0421 30.9186 48.1941 30.5491C47.3479 30.1796 46.4455 29.9948 45.4903 29.9948C44.5335 29.9948 43.6377 30.1796 42.803 30.5491C41.9666 30.9186 41.2341 31.4168 40.6039 32.047C39.9737 32.6772 39.4805 33.4097 39.1208 34.246C38.7629 35.0824 38.583 35.9782 38.583 36.9334C38.583 37.8886 38.7612 38.7843 39.1208 39.6207Z" fill="white"/>
<path d="M76.6017 48.5802C75.0807 47.9187 73.7461 47.0163 72.5946 45.8764C71.4431 44.7364 70.5374 43.3952 69.8743 41.8528C69.2111 40.312 68.8812 38.6705 68.8812 36.9334C68.8812 35.1963 69.2127 33.5565 69.8743 32.014C70.5358 30.4715 71.4431 29.1304 72.5946 27.9904C73.7461 26.8505 75.0807 25.9498 76.6017 25.2866C78.1227 24.625 79.751 24.2935 81.4881 24.2935C83.5948 24.2935 85.4737 24.6679 87.1234 25.4169C88.7748 26.1659 90.1539 27.2151 91.2609 28.5612C91.6947 29.104 91.9125 29.6797 91.9125 30.2884C91.9125 30.8097 91.7871 31.2651 91.538 31.6577C91.2889 32.0487 90.9837 32.3687 90.6257 32.6178C90.2678 32.8686 89.9032 33.0583 89.5353 33.1886C89.1658 33.3189 88.8622 33.3849 88.623 33.3849C87.9285 33.3849 87.2554 33.0154 86.6038 32.278C86.3431 31.9959 86.033 31.7187 85.675 31.4465C85.317 31.176 84.9195 30.9318 84.4856 30.7141C84.0501 30.4979 83.5783 30.3231 83.0685 30.1928C82.5571 30.0624 82.0308 29.9964 81.4881 29.9964C80.5313 29.9964 79.6371 30.1812 78.8007 30.5507C77.9644 30.9203 77.2319 31.4185 76.6017 32.0487C75.9715 32.6788 75.4783 33.4113 75.1203 34.2477C74.7623 35.0841 74.5825 35.9799 74.5825 36.935C74.5825 37.8919 74.7623 38.786 75.1203 39.6224C75.4783 40.4588 75.9732 41.1912 76.6017 41.8214C77.2319 42.4516 77.9644 42.9449 78.8007 43.3045C79.6371 43.6625 80.5329 43.8423 81.4881 43.8423C82.595 43.8423 83.5997 43.6097 84.5021 43.1412C85.4028 42.6743 86.1039 42.1596 86.6038 41.5938C86.9519 41.1813 87.2934 40.8877 87.6299 40.7145C87.9664 40.5413 88.3079 40.4538 88.656 40.4538C89.0041 40.4538 89.3736 40.5413 89.7629 40.7145C90.1539 40.8877 90.507 41.122 90.8221 41.4156C91.1371 41.7092 91.3961 42.0408 91.604 42.4087C91.8102 42.7782 91.9141 43.1577 91.9141 43.5487C91.9141 44.1788 91.6964 44.7661 91.2625 45.3072C90.1556 46.6534 88.7764 47.7026 87.1251 48.4515C85.4737 49.2005 83.5964 49.575 81.4898 49.575C79.751 49.5733 78.1211 49.2417 76.6017 48.5802Z" fill="white"/>
</svg>
