<svg width="30" height="23" viewBox="0 0 30 23" fill="none" xmlns="http://www.w3.org/2000/svg">
<path d="M18.7356 23H27.0136C28.8054 23 30 21.8264 30 20.087V2.90251C30 1.1631 28.8054 0 27.0136 0H18.7356C16.9123 0 15.6968 1.1631 15.6968 2.90251V20.087C15.6968 21.8264 16.9123 23 18.7356 23ZM19.0919 20.8415C18.2641 20.8415 17.7925 20.3909 17.7925 19.5945V3.39499C17.7925 2.59863 18.2641 2.14806 19.0919 2.14806H26.605C27.4328 2.14806 27.9043 2.60911 27.9043 3.40547V19.5945C27.9043 20.3909 27.4328 20.8415 26.605 20.8415H19.0919ZM1.16312 20.108C1.84422 20.108 2.33671 19.6364 2.33671 18.9554V17.3731C2.33671 13.9048 4.52672 12.6579 7.33496 12.6579H7.99511L10.2899 12.5636L8.26755 14.3554L7.24066 15.2355C6.95774 15.4765 6.85295 15.7909 6.85295 16.1262C6.85295 16.7654 7.32448 17.2369 7.97415 17.2369C8.28851 17.2369 8.57143 17.1216 8.84387 16.8597L13.2868 12.3854C13.5487 12.1339 13.6954 11.8301 13.6954 11.4948C13.6954 11.1699 13.5487 10.8661 13.2868 10.6041L8.82291 6.11936C8.57143 5.87836 8.28851 5.7631 7.97415 5.7631C7.32448 5.7631 6.85295 6.23462 6.85295 6.8738C6.85295 7.20911 6.95774 7.52346 7.24066 7.76446L8.26755 8.64465L10.2899 10.426L7.99511 10.3421H7.33496C3.52078 10.3421 0 12.3016 0 17.3731V18.9554C0 19.6364 0.482012 20.108 1.16312 20.108Z" fill="#AE1D1D"/>
</svg>
