<svg width="244" height="354" viewBox="0 0 244 354" fill="none" xmlns="http://www.w3.org/2000/svg">
<path d="M123.06 173.97C124 176.16 127.35 175.49 130.13 178.75C133.33 182.5 132.07 186.99 133.5 187.4C135.51 187.97 140.41 180.48 142.55 173.2C146.92 158.34 140.09 143.3 134.34 133.92C133.79 134.19 126.43 138.01 125.4 146.55C124.35 155.31 130.96 160.82 131.37 161.16C123.11 168.69 122.28 172.16 123.06 173.97Z" fill="#B3B3B3"/>
<path d="M223.31 93.6499H223.3C217.76 96.9199 211.36 96.3699 210.84 96.3199C206.68 96.0299 203.86 94.3799 201.54 93.1199C199.92 92.2199 194.06 89.1199 193.32 84.9599C193.14 84.0099 193.32 83.4799 193.49 83.1899C194.56 81.2299 198.58 82.1099 198.69 81.5099C198.83 80.7799 193.49 77.2899 188.65 79.2399C184.11 81.0699 182.44 86.6999 183.06 87.1899C183.5 87.5499 185.53 84.9199 186.96 85.5699C187.74 85.9199 187.92 87.1099 188.01 87.5899C188.85 92.3099 193.92 99.1599 199.45 102.06C201.73 103.26 203.11 103.28 203.3 104.32C203.65 106.26 199.34 109.06 195.36 110.08C193.5 110.56 192.02 110.59 191.67 110.58C186.47 110.35 182.06 105.84 165.47 99.4999C159.72 97.3099 152.8 94.7999 147.84 87.9099C147.6 87.5899 147.42 87.2699 147.24 86.9799C140.95 76.3599 147.85 63.5299 146.26 62.7799C144.86 62.1199 137.83 70.1599 132.52 83.7099C128 95.2199 127.19 104.42 126.11 116.18C124.76 130.84 122.61 145.44 121.85 160.15C120.46 187.13 109.89 230.46 88.52 265.48C62.64 307.87 25.11 331.27 0 343.39V231.25C2.65 230.35 5.88 229.12 9.49 227.45C10.99 226.76 12.55 225.99 14.16 225.14C18 223.11 22.11 220.6 26.29 217.48C36.78 209.67 44.14 200.75 49.58 192.38C50.39 191.15 51.14 189.94 51.86 188.74C52.89 187.02 53.85 185.34 54.74 183.71C61.24 171.77 65.75 159.8 69.26 147.78C69.84 145.77 70.4 143.76 70.93 141.75C74.83 127.08 77.49 112.35 80.71 97.5799C81.06 95.9399 81.42 94.3099 81.8 92.6699C84.36 81.4199 87.35 70.1499 91.59 58.8499C92.1 57.4899 92.63 56.1199 93.18 54.7599C93.29 54.4999 93.39 54.2299 93.51 53.9499C95.75 48.4799 99.35 40.5499 105.15 32.9599C106.34 31.4099 107.62 29.8699 109 28.3699C113.14 23.8599 118.18 19.6999 124.31 16.5099C124.31 16.5099 124.32 16.5099 124.32 16.4999C125.49 15.8999 126.68 15.3499 126.68 15.3499C128.11 14.6999 129.57 14.1099 131.08 13.5699H131.09C134.97 12.1899 139.05 11.1899 143.22 10.5999H143.24C156.39 8.7599 170.32 11.0399 181.07 18.1899C183.2 19.5899 185.81 22.0399 186.27 22.4399C195.45 30.4999 200.26 37.7599 203.15 41.5799C214.74 56.9799 230.02 56.6699 233.35 69.2899C235.64 77.9999 230.98 89.0899 223.31 93.6499Z" fill="#50894D"/>
<path d="M189.29 79.3601C189.29 79.3601 189.27 79.3501 189.26 79.3501C189.3 79.3701 189.33 79.4001 189.36 79.4301C189.34 79.4101 189.31 79.3901 189.29 79.3601ZM243.02 66.7401C240.22 56.1301 232.4 51.4401 225.5 47.3101C220.32 44.2001 215.43 41.2701 211.13 35.5601C210.76 35.0701 210.36 34.5201 209.92 33.9201C206.81 29.6901 201.62 22.6101 192.89 14.9401L192.7 14.7701C191.01 13.2501 188.79 11.3001 186.6 9.86011C174.42 1.76011 158.1 -1.57989 141.81 0.700111C136.95 1.39011 132.21 2.55011 127.74 4.15011C125.91 4.80011 124.15 5.51011 122.52 6.26011C122.37 6.32011 121.05 6.93011 119.7 7.63011C96.51 19.6901 87.02 43.2801 83.9 51.0301C75.99 70.7001 71.96 90.2001 68.07 109.06C63.07 133.29 58.35 156.18 45.96 178.92C41.45 187.2 33.88 199.37 20.32 209.46C16.72 212.14 12.9 214.53 8.89 216.61C8.62 216.75 8.35 216.89 8.07 217.03C5.46 218.36 2.77 219.55 0 220.61V241.64L2.66 240.89C2.83 240.84 3.01 240.79 3.18 240.73C5.9 239.81 8.57 238.78 11.18 237.65C14.59 236.18 17.9 234.54 21.11 232.74C24.98 230.57 28.71 228.15 32.26 225.51C41.64 218.53 48.64 210.85 53.92 203.7C56.65 200.01 58.93 196.46 60.84 193.22C61.83 191.55 62.72 189.97 63.52 188.49C68.67 179.05 72.63 169.59 75.83 160.18C77.55 155.1 79.06 150.03 80.42 144.98C83.29 134.25 85.49 123.6 87.66 113.1C87.82 112.31 87.99 111.52 88.15 110.73C89.15 105.88 90.15 101.09 91.21 96.3501C93.25 87.2601 95.51 78.3301 98.47 69.4101C99.67 65.7801 100.99 62.1401 102.46 58.5001C102.48 58.4401 102.51 58.3901 102.53 58.3301C103.83 55.0901 106.47 48.6001 111.03 41.9301C112.79 39.3401 114.85 36.7201 117.24 34.2501C120.44 30.9201 124.24 27.8501 128.71 25.5001C128.78 25.4601 128.86 25.4201 128.93 25.3801C129.84 24.9001 130.78 24.4701 130.85 24.4401C131.95 23.9301 133.16 23.4501 134.45 22.9901C136.59 22.2301 138.82 21.6001 141.1 21.1301C141.83 20.9701 142.57 20.8301 143.32 20.7001C143.74 20.6301 144.17 20.5701 144.6 20.5101C156.09 18.9001 167.37 21.0901 175.55 26.5301C176.36 27.0601 177.62 28.1001 179.29 29.6101L179.67 29.9501C186.78 36.2001 191 41.9501 193.79 45.7601C194.29 46.4401 194.75 47.0601 195.16 47.6001C201.8 56.4101 209.24 60.8701 215.21 64.4601C220.95 67.9001 223.02 69.3301 223.68 71.8401C224.83 76.1901 222.11 82.7301 218.2 85.0401C215.94 86.3801 212.73 86.4501 211.67 86.3601C211.63 86.3501 211.59 86.3501 211.55 86.3501C210.25 86.2601 209.25 85.8801 207.97 85.2201C208.26 84.4901 208.42 83.8601 208.5 83.4101C208.51 83.3801 208.51 83.3501 208.52 83.3201V83.3001C208.87 81.4001 209.08 76.8501 204.51 73.0801C200.19 69.5201 192.21 67.0201 184.91 69.9701C177.84 72.8201 173.82 79.7301 173.07 84.9401C172.61 88.1801 173.42 90.6201 174.47 92.3301C172.81 91.6401 171 90.9101 169.03 90.1601L168.6 89.9901C163.72 88.1301 159.11 86.3701 155.97 82.1001L155.94 82.0501C155.94 82.0501 155.92 82.0201 155.91 82.0001L155.84 81.8801C153.55 78.0001 154.83 72.4501 155.68 68.7901C156.33 65.9701 158.32 57.3901 150.5 53.7301C147.85 52.4801 144.83 52.4101 142.01 53.5301C134.15 56.6701 126.49 71.6801 123.21 80.0601C118.23 92.7601 117.28 103 116.19 114.86L116.15 115.26C115.67 120.51 115.06 125.89 114.48 131.08C113.44 140.38 112.36 149.99 111.86 159.63C110.5 185.96 100.12 227.28 79.98 260.27C57.44 297.2 24.86 319.56 0 332.22V353.92L3.06 352.92C3.49 352.78 3.9 352.61 4.31 352.41C32.03 339.03 70.62 314 97.05 270.69C119.01 234.71 130.35 189.51 131.84 160.67C132.3 151.62 133.35 142.31 134.36 133.31C134.95 128.02 135.57 122.54 136.07 117.1L136.1 116.7C136.91 107.93 137.54 101.08 139.67 93.6801C139.69 93.7101 139.71 93.7401 139.73 93.7601C146.32 102.9 155.08 106.24 161.48 108.68L161.9 108.84C169.42 111.71 174.13 114.11 177.91 116.04C182.64 118.45 186.37 120.36 191.23 120.57C191.28 120.57 191.32 120.58 191.36 120.58C192.06 120.6 194.6 120.6 197.83 119.77C205.02 117.94 212.15 113.12 213.2 106.37C216.94 106.29 222.84 105.54 228.39 102.26C240.02 95.3601 246.45 79.7701 243.02 66.7401Z" fill="#50894D"/>
<path d="M223.33 93.6903C217.8 96.9603 211.4 96.4103 210.87 96.3603C206.71 96.0703 203.89 94.4203 201.58 93.1503C199.95 92.2603 194.1 89.1603 193.35 84.9903C193.18 84.0403 193.36 83.5203 193.52 83.2203C194.59 81.2603 198.6 82.1403 198.71 81.5403C198.85 80.8103 193.52 77.3203 188.67 79.2703C184.13 81.1003 182.46 86.7303 183.08 87.2203C183.52 87.5803 185.55 84.9503 186.97 85.5903C187.76 85.9403 187.93 87.1303 188.02 87.6103C188.86 92.3303 193.93 99.1803 199.46 102.09C201.74 103.29 203.13 103.31 203.31 104.35C203.66 106.29 199.35 109.1 195.37 110.11C193.52 110.59 192.03 110.62 191.68 110.61C186.48 110.38 182.07 105.86 165.48 99.5303C159.73 97.3403 152.81 94.8303 147.85 87.9503C147.61 87.6203 147.42 87.3103 147.25 87.0103C140.96 76.3903 147.86 63.5603 146.27 62.8103C144.87 62.1503 137.84 70.1903 132.53 83.7403C128.02 95.2503 127.21 104.45 126.12 116.22C124.77 130.88 122.62 145.48 121.86 160.19C120.47 187.17 109.91 230.5 88.53 265.52C62.67 307.93 25.11 331.33 0 343.45V231.3C6.35 229.14 16.14 225.11 26.33 217.52C40.56 206.93 49.02 194.3 54.77 183.74C77.94 141.21 75.77 98.1503 93.21 54.8003C97.14 45.0403 105.69 26.2403 124.34 16.5403C125.51 15.9303 126.71 15.3803 126.71 15.3803C128.14 14.7303 129.61 14.1403 131.12 13.6003C135 12.2103 139.08 11.2203 143.25 10.6303C156.42 8.79028 170.35 11.0703 181.1 18.2103C183.23 19.6203 185.85 22.0603 186.3 22.4603C195.47 30.5203 200.28 37.7803 203.18 41.6003C214.78 56.9903 230.05 56.6903 233.39 69.3103C235.68 78.0203 231.01 89.1203 223.33 93.6703V93.6903Z" fill="#5DA55B"/>
<path d="M222.33 67.0102C223.83 66.6602 227.52 71.2102 226.32 74.7502C225.52 77.1102 222.7 78.5802 222.04 78.0802C221.6 77.7502 222.39 76.7802 222.17 74.7902C221.98 73.0402 221.25 72.7402 221.06 71.1802C220.85 69.4802 221.39 67.2202 222.33 67.0002V67.0102Z" fill="#50894D"/>
<path d="M187.21 46.8399C188.97 52.6099 186.98 58.3099 182.77 59.5999C178.55 60.8899 173.7 57.2699 171.95 51.5099C171.76 50.8899 171.61 50.2699 171.52 49.6399C174.01 50.9099 176.7 50.7999 178.21 49.1599C180.16 47.0399 179.38 43.1699 176.48 40.5099C176.01 40.0799 175.51 39.7099 175 39.3999C175.43 39.1299 175.89 38.9099 176.39 38.7599C180.61 37.4699 185.46 41.0899 187.21 46.8399Z" fill="#386593"/>
<path d="M1.74 285.08C1.19 285.28 0.61 285.42 0 285.5V223.3C2.7 222.59 5.4 221.87 8.1 221.15C8.61 223.28 9.08 225.38 9.49 227.45C10.19 230.94 10.75 234.35 11.18 237.65C14.5 262.93 10.22 281.94 1.74 285.08Z" fill="#50894D"/>
<path d="M77.97 93.3501C75.37 102.28 72.77 111.24 70.19 120.24C68.4 126.47 66.62 132.7 64.86 138.91C71.2 142.13 87.03 149.42 93.2 143.72C99.87 137.56 93.98 117.43 77.97 93.3601V93.3501Z" fill="#50894D"/>
<path d="M46.07 185.3C50.15 187.87 72.86 201.87 80.74 195.08C87.8 188.98 81.77 167.15 65.04 140.86C60.83 149.84 56.66 159.22 52.6 169.01C50.31 174.52 48.14 179.95 46.08 185.31L46.07 185.3Z" fill="#50894D"/>
<path d="M89.21 55.6001C87.29 61.5901 85.37 67.5801 83.45 73.5701C81.61 79.3001 79.76 85.0401 77.91 90.7701C81.77 92.7601 99.3 101.51 104.71 95.9801C109.68 90.9001 103.54 74.6801 89.2 55.6001H89.21Z" fill="#50894D"/>
<path d="M90.76 52.23C101.05 59.05 110.89 61.78 113.93 58.33C117.23 54.58 113.38 42.45 102.6 29.79C100.78 32.43 98.92 35.4 97.09 38.7C94.43 43.51 92.37 48.09 90.76 52.22V52.23Z" fill="#50894D"/>
<path d="M106.42 25.92C115.64 35.3 125.45 38.62 128.5 36C131.56 33.37 129.69 23.22 121.71 12.75C119.27 14.18 116.42 16.1 113.48 18.63C110.52 21.17 108.2 23.71 106.42 25.92Z" fill="#50894D"/>
<path d="M127.16 8.79014C133.15 16.8901 139.79 21.8901 142.52 21.1701C145.23 20.4501 144.99 13.8501 141.35 5.39014C136.62 6.52014 131.89 7.66014 127.16 8.79014Z" fill="#50894D"/>
<path d="M9.03998 218.43C24.31 239.77 42.91 250.79 51.22 246.41C60 241.78 61.59 217.67 48.26 189.53C43.62 195.21 36.7 202.41 26.97 208.94C20.48 213.3 14.28 216.32 9.03998 218.43Z" fill="#50894D"/>
<path d="M65.48 125.32C68.22 134.43 73.86 148.64 86.1 161.81C100.22 177.02 118.25 185.6 119.75 183.69C121.31 181.7 104.32 169.26 84.85 142.2C78.07 132.77 73.12 124.52 69.9 118.85C68.42 121.01 66.95 123.17 65.47 125.33L65.48 125.32Z" fill="#50894D"/>
<path d="M109.61 153.81C110.78 155.5 111.95 157.19 113.11 158.88C108.99 158.5 104.86 158.11 100.74 157.73C103.69 156.42 106.65 155.12 109.6 153.81H109.61Z" fill="#B3B3B3"/>
<path d="M95.46 145.59C102.39 151.65 108.68 156.02 113.12 158.87C112.74 161.4 112.48 164.72 112.84 168.59C113.23 172.82 114.24 176.31 115.18 178.84C106.46 174.15 94.28 166 83.79 152.44C71 135.91 65.75 117.06 67.81 115.93C69.7 114.88 76.89 129.34 95.47 145.59H95.46Z" fill="#4A7CB9"/>
<path d="M116.18 174.52L124.53 168.85C129.06 190.12 132.56 205.64 134.8 215.41C138.79 232.83 141.54 244.04 136.92 256.79C135.95 259.48 134.11 262.93 130.44 269.85C122.2 285.37 118.08 293.13 114.2 292.66C112.06 292.4 111.04 289.73 105.69 273.53C100.86 258.89 98.44 251.5 98.08 247.54C97.2 237.92 99.52 231.82 103.87 217.9C106.97 207.99 111.36 193.28 116.17 174.51L116.18 174.52Z" fill="#4A7CB9"/>
<path d="M110.34 164.4C110.05 165.49 109.4 168.06 110.11 171.17C111.11 175.51 114.12 178.04 115.17 178.85C116.21 177.87 118.33 175.58 118.96 172.09C119.83 167.29 117.53 162.18 113.11 158.88C112.29 159.92 111.03 161.78 110.33 164.4H110.34Z" fill="#386593"/>
<path d="M124.92 177.26C122.36 175.59 118.47 176.13 115.13 178.59C115.19 180.24 115.62 185.99 120.13 191.06C124.13 195.56 129 196.87 130.71 197.25C129.48 191.38 128.24 185.51 127.01 179.65C126.33 178.33 125.49 177.63 124.92 177.26Z" fill="#386593"/>
<path d="M123.06 173.97C124 176.16 127.35 175.49 130.13 178.75C133.33 182.5 132.07 186.99 133.5 187.4C135.51 187.97 140.41 180.48 142.55 173.2C146.92 158.34 140.09 143.3 134.34 133.92C133.35 143 132.36 152.08 131.37 161.16C123.2 168.5 122.24 172.07 123.06 173.97Z" fill="#B3B3B3"/>
<path d="M134.68 171.93C133.08 177.34 129.22 180.52 127.45 181.79C126.57 182.27 124.44 183.26 121.63 183.04C117.81 182.74 115.42 180.4 114.82 179.77C115.54 177.07 116.32 172.68 115.58 167.37C115.08 163.83 114.05 160.96 113.12 158.88C114.99 158.19 117.89 157.37 121.5 157.28C125.09 157.19 128.01 157.87 129.91 158.47C131 158.98 133.13 160.16 134.47 162.55C136.43 166.05 135.34 169.74 134.69 171.93H134.68Z" fill="#4A7CB9"/>
<path d="M109.61 153.81C104.28 158.07 98.6 164.25 97.65 172.35C96.57 181.61 101.85 187.25 99.76 189.36C95.94 193.24 69.72 182.04 58.71 161.98C40.41 128.63 71.91 84.9099 73.37 82.9399C72.43 87.2899 71.49 91.6299 70.56 95.9799C71.87 104.46 75.91 122.44 90.47 138.47C97.08 145.75 104.04 150.62 109.61 153.81Z" fill="white"/>
</svg>
