<svg width="85" height="66" viewBox="0 0 85 66" fill="none" xmlns="http://www.w3.org/2000/svg">
<g clip-path="url(#clip0_57_1232)">
<path d="M85 63.1152C84.7986 63.5653 84.6582 64.0553 84.3828 64.4566C83.6834 65.4783 82.6616 65.9918 81.4088 65.9937C74.3575 66.0018 67.3062 66.0018 60.2548 65.9946C58.2324 65.9927 56.6682 64.4412 56.6544 62.4549C56.647 61.339 56.6534 60.2222 56.6534 59.0537H35.4154V31.2514C34.5294 31.2514 33.6877 31.2514 32.847 31.2514C25.4751 31.2514 18.1032 31.2523 10.7313 31.2469C8.82246 31.2451 7.39593 30.0622 7.12061 28.2842C6.85267 26.5533 7.92811 24.9546 9.73066 24.4302C9.99121 24.3541 10.2767 24.3314 10.5502 24.3314C19.8762 24.3269 29.2012 24.3287 38.5272 24.3206C38.8422 24.3206 39.0141 24.403 39.161 24.6928C41.3423 28.997 43.5385 33.2948 45.7319 37.5945C45.8132 37.7539 45.9065 37.907 46.0441 38.1533C46.1966 37.5863 46.3315 37.1063 46.4544 36.6226C47.0651 34.2259 47.6665 31.8266 48.2865 29.4327C48.3752 29.0894 48.3438 28.8095 48.1775 28.4925C47.4679 27.1429 46.787 25.7788 46.0682 24.3677H53.0945C52.6289 25.2879 52.1743 26.1882 51.7179 27.0886C51.4989 27.5206 51.2994 27.9644 51.0499 28.3793C50.8235 28.7561 50.7977 29.1138 50.9085 29.5377C51.6357 32.3365 52.3397 35.1417 53.0539 37.9432C53.0677 37.9975 53.1084 38.0446 53.1573 38.1352C53.9944 36.4976 54.8139 34.898 55.6307 33.2957C57.108 30.3964 58.5816 27.4943 60.0682 24.5986C60.1292 24.48 60.3057 24.3396 60.4267 24.3405C61.9946 24.3514 63.5772 24.2644 65.1285 24.4383C69.5383 24.9338 73.0621 28.0858 74.0886 32.3583C74.2669 33.1001 74.351 33.8781 74.3639 34.6417C74.4 36.7992 74.3769 38.9585 74.3769 41.117V41.6659H74.9007C77.0257 41.6659 79.1507 41.6867 81.2748 41.6595C83.1254 41.636 84.7053 42.8886 84.9455 44.5733C84.9492 44.5969 84.9825 44.6168 85.0019 44.6386V63.1161L85 63.1152ZM67.2775 45.1929H60.2475V62.4648H81.4448V45.1893H74.375C74.375 45.3749 74.375 45.5371 74.375 45.6983C74.375 49.0034 74.3806 52.3085 74.3732 55.6136C74.3695 57.4768 72.8025 59.0184 70.914 59.0383C68.874 59.061 67.2877 57.5311 67.2803 55.504C67.2692 52.2895 67.2775 49.075 67.2775 45.8604V45.1929ZM67.2692 41.645C67.2692 39.8172 67.2729 38.0401 67.2627 36.2639C67.2618 36.0909 67.1999 35.9061 67.1251 35.7458C66.7768 34.9986 65.9646 34.6082 65.1433 34.7766C64.3432 34.9415 63.7556 35.638 63.7519 36.4641C63.7435 38.1062 63.7491 39.7484 63.7519 41.3914C63.7519 41.4766 63.7796 41.5608 63.7944 41.6441H67.2692V41.645Z" fill="#4A7CB9"/>
<path d="M0 48.5325C0.649511 47.2879 1.30364 46.0452 1.94853 44.798C2.44098 43.846 2.92049 42.8887 3.47391 41.9594C2.91033 44.1649 2.34766 46.3713 1.77761 48.6031H8.84185C8.28842 46.4211 7.73962 44.2573 7.19082 42.0934L7.27212 42.0608C7.59179 42.6785 7.91424 43.2944 8.22929 43.914C8.94348 45.3161 9.63179 46.7309 10.3774 48.1176C10.6213 48.5714 10.6444 48.9908 10.5298 49.4599C10.164 50.9545 8.74761 52.0749 7.1788 52.0848C5.96293 52.093 4.74799 52.0903 3.53212 52.0803C1.7887 52.0649 0.46288 50.9988 0.0794565 49.3205C0.0674457 49.267 0.0277174 49.219 0.000923913 49.1683C0.000923913 48.9573 0.000923913 48.7453 0.000923913 48.5343L0 48.5325Z" fill="#4A7CB9"/>
<path d="M49.6058 20.8316C43.836 20.9113 38.8644 16.195 38.9522 10.188C39.0335 4.65831 43.8489 -0.0163222 49.5855 -1.85165e-05C55.4551 0.0171909 60.2419 4.72533 60.2225 10.4642C60.204 16.185 55.4357 20.8415 49.6058 20.8316Z" fill="#4A7CB9"/>
<path d="M17.7521 55.5856C19.0086 55.5856 20.2365 55.562 21.4634 55.591C23.1357 55.6309 24.5724 56.9551 24.7572 58.5836C24.772 58.7159 24.759 58.8518 24.759 59.0121H7.13355C6.98203 57.321 8.54713 55.6517 10.3543 55.591C11.3845 55.5566 12.4165 55.5801 13.4476 55.5774C13.6601 55.5774 13.8726 55.5774 14.1183 55.5774V41.6776H3.49518C3.53398 40.9087 3.50257 40.1677 3.6273 39.4531C3.75849 38.6995 4.54197 38.1959 5.34116 38.2059C6.13387 38.2158 6.83143 38.7548 7.02453 39.5083C7.05779 39.637 7.08366 39.7674 7.11969 39.9295C8.91762 39.4902 10.6878 39.0591 12.4571 38.6261C12.9043 38.5165 13.3469 38.3789 13.7996 38.3001C14.0989 38.2475 14.1673 38.108 14.1562 37.8399C14.1387 37.4025 14.1424 36.9641 14.1534 36.5266C14.1812 35.4777 14.9323 34.7404 15.9551 34.7477C16.952 34.754 17.692 35.4895 17.7188 36.5193C17.7336 37.0755 17.7216 37.6316 17.7216 38.2068C20.0776 38.7846 22.3984 39.3544 24.735 39.9277C24.8062 39.6895 24.8487 39.4676 24.9374 39.2647C25.2653 38.5184 26.0636 38.089 26.8443 38.2213C27.6583 38.3589 28.2838 39.0111 28.3374 39.8408C28.3752 40.425 28.3447 41.0128 28.3447 41.655H17.7512V55.5856H17.7521Z" fill="#4A7CB9"/>
<path d="M23.0322 48.6031H30.0955C29.5282 46.3794 28.9647 44.1712 28.4011 41.9639L28.4602 41.9349C28.7873 42.5671 29.1162 43.1975 29.4405 43.8315C30.1833 45.2871 30.9012 46.7553 31.6763 48.1937C31.9295 48.6638 31.8667 49.094 31.7456 49.5433C31.3428 51.0314 30.0013 52.0567 28.4306 52.0749C27.1686 52.0893 25.9065 52.0957 24.6454 52.0821C22.9066 52.0631 21.3682 50.6184 21.262 48.9174C21.2518 48.7598 21.2805 48.5813 21.3507 48.4409C22.415 46.3351 23.4896 44.2328 24.5631 42.1314C24.5752 42.1079 24.6056 42.0925 24.7063 42.0028C24.1363 44.25 23.5875 46.4129 23.0322 48.6031Z" fill="#4A7CB9"/>
</g>
<defs>
<clipPath id="clip0_57_1232">
<rect width="85" height="66" fill="white"/>
</clipPath>
</defs>
</svg>
