<svg width="33" height="26" viewBox="0 0 33 26" fill="none" xmlns="http://www.w3.org/2000/svg">
<g clip-path="url(#clip0_56_134)">
<path d="M15.7213 3.83228C16.7079 3.32719 17.6864 3.01452 18.6894 2.80607C25.1475 1.45115 31.6219 5.72435 32.7961 12.1141C34.003 18.6722 29.5671 24.8375 22.8807 25.8637C16.3247 26.8739 10.1193 22.3281 9.24685 15.8742C8.87991 13.1964 9.40178 10.6951 10.7717 8.35402C10.9348 8.08143 11.106 7.99324 11.424 8.03333C12.5248 8.16962 13.5278 8.53841 14.4492 9.20385C14.3595 9.33212 14.2861 9.45238 14.2046 9.56462C10.6738 14.5113 13.6175 21.4061 19.6924 22.4083C24.8214 23.2581 29.5019 19.3297 29.4611 14.2227C29.4122 9.05954 24.6746 5.25133 19.4804 6.19737C19.3336 6.22142 19.1134 6.21341 19.0237 6.1172C18.0778 5.19521 17.0015 4.45762 15.7213 3.83228Z" fill="#50894D"/>
<path d="M9.31214 3.84847L7.16759 1.73191C7.74654 1.16269 8.28472 0.625532 8.8392 0.0963918C8.92074 0.0242364 9.07567 0.0082019 9.19798 0.0082019C10.1928 0.0082019 11.1795 0.000184635 12.1743 0.0082019C12.3129 0.0082019 12.4923 0.0643228 12.5901 0.152513C13.1201 0.649583 13.6257 1.16269 14.172 1.70786L12.0112 3.85649C13.4789 4.05692 14.7999 4.48985 16.023 5.18736C21.6413 8.35418 23.1009 15.7381 19.0972 20.7409C18.8852 21.0054 18.7221 21.0776 18.3878 20.9413C17.5397 20.5725 16.7569 20.1155 16.0638 19.4661C16.1535 19.3539 16.2432 19.2496 16.3329 19.1454C18.2165 16.9086 18.7465 14.3912 17.6946 11.6733C16.6509 8.95547 14.5553 7.38409 11.6279 6.96719C6.9882 6.30977 2.78064 10.2463 3.1965 14.8161C3.53082 18.472 6.22986 21.1978 9.94001 21.5907C10.2988 21.6308 10.5108 21.7751 10.7473 22.0397C11.4078 22.7772 12.1335 23.4587 12.8348 24.1642C12.9244 24.2524 13.0223 24.3246 13.1935 24.4689C9.63016 25.1985 6.47449 24.541 3.7836 22.2561C0.489312 19.4501 -0.635966 15.8583 0.342536 11.6974C1.17426 8.16176 4.22393 4.62615 9.31214 3.84847Z" fill="#50894D"/>
</g>
<defs>
<clipPath id="clip0_56_134">
<rect width="33" height="26" fill="white"/>
</clipPath>
</defs>
</svg>
