<svg width="27" height="34" viewBox="0 0 27 34" fill="none" xmlns="http://www.w3.org/2000/svg">
<g clip-path="url(#clip0_56_83)">
<path d="M21.422 23.4783C20.2868 21.8552 18.4578 21.5894 17.1404 22.1771C15.774 22.7927 14.9541 24.2338 15.1643 25.703C15.2904 26.6055 15.7249 27.347 16.4397 27.9067C17.1544 28.4664 17.9743 28.6692 18.8993 28.6203C18.8433 28.7042 18.8152 28.7532 18.7802 28.8092C18.0654 29.8306 17.3507 30.852 16.6359 31.8734C16.5728 31.9643 16.5098 32.0063 16.3976 32.0063C11.5905 32.0063 6.79032 32.0063 1.98315 32.0063C1.05816 32.0063 0.238279 31.3417 0.0490753 30.4462C-0.147135 29.5367 0.322369 28.6063 1.17729 28.2355C1.35948 28.1585 1.55569 28.1166 1.7519 28.0536C1.80096 27.5079 1.85702 26.9483 1.90607 26.3886C2.01819 25.1573 2.13031 23.919 2.24243 22.6878C2.31251 21.9042 2.37557 21.1137 2.46667 20.3301C2.71194 18.1194 3.50379 16.1186 4.81419 14.3277C5.49392 13.3972 6.27176 12.5577 7.21077 11.8791C7.28084 11.8301 7.37895 11.7952 7.46304 11.7952C10.3642 11.7952 13.2653 11.7952 16.1594 11.7952C16.2505 11.7952 16.3626 11.8441 16.4327 11.9071C16.8812 12.3129 17.3507 12.7116 17.7641 13.1524C19.488 14.9503 20.5601 17.0911 20.9876 19.5326C21.1487 20.4491 21.2048 21.3795 21.3099 22.303C21.352 22.6948 21.387 23.0935 21.429 23.4853L21.422 23.4783ZM8.43709 23.0096C8.43709 23.6322 8.61227 24.1849 8.96966 24.6676C9.53026 25.4301 10.3081 25.7869 11.2611 25.8219V26.9273H12.3823V25.8219C14.0501 25.7659 15.0872 24.5557 15.1853 23.2125C15.2344 22.5269 15.0662 21.8902 14.6528 21.3306C14.0922 20.575 13.3213 20.2252 12.3963 20.1902V16.8322C12.7747 16.8392 13.1111 16.9441 13.4054 17.168C13.8539 17.5038 14.0431 17.9725 14.0781 18.5112H15.1923C15.1923 17.8886 15.0101 17.3289 14.6458 16.8392C14.0852 16.0906 13.3213 15.7408 12.3753 15.7059V14.6005H11.2471V15.6919C9.4742 15.7548 8.46511 17.119 8.43709 18.4552C8.40905 19.7915 9.3831 21.2676 11.2401 21.3376V24.6886C10.8407 24.6886 10.4903 24.5697 10.189 24.3318C9.76851 23.996 9.57931 23.5483 9.55829 23.0166C9.51624 23.0166 9.48121 23.0166 9.44617 23.0166C9.11681 23.0166 8.79447 23.0166 8.44409 23.0166L8.43709 23.0096Z" fill="#9D9D9D"/>
<path d="M14.2603 4.12757C14.3024 4.06461 14.3444 3.99465 14.3865 3.93169C14.849 3.19712 15.3815 2.51152 15.9842 1.88889C16.0473 1.82593 16.0893 1.79095 16.1944 1.83292C17.1474 2.29465 18.1005 2.74938 19.0535 3.21111C19.0675 3.21111 19.0815 3.2321 19.1095 3.25309C18.8503 3.46996 18.591 3.67984 18.3387 3.88971C17.3366 4.70123 16.3836 5.56872 15.6198 6.61811C15.4937 6.78601 15.3745 6.96091 15.2694 7.1428C15.2064 7.24774 15.1433 7.28272 15.0172 7.28272C13.0621 7.28272 11.107 7.28272 9.14484 7.28272C8.94863 7.28272 8.72439 7.33868 8.57723 7.26173C8.42307 7.18477 8.34599 6.9679 8.23386 6.81399C7.42099 5.68765 6.42592 4.75021 5.36078 3.86872C5.11552 3.66584 4.87726 3.46296 4.61798 3.25309C4.65302 3.2251 4.68105 3.20412 4.70908 3.19012C5.62706 2.74239 6.54505 2.29465 7.46304 1.83992C7.58216 1.78395 7.63122 1.82593 7.68728 1.90988C8.26189 2.70041 8.84352 3.48395 9.41814 4.27449C9.44617 4.30947 9.4742 4.34444 9.50923 4.37243C8.98367 2.86831 8.27591 1.45514 7.59618 0H16.0192L14.2183 4.10658L14.2533 4.12757H14.2603Z" fill="#9D9D9D"/>
<path d="M11.8077 10.6546C10.6865 10.6546 9.55827 10.6546 8.43707 10.6546C7.93954 10.6546 7.51208 10.3328 7.37193 9.86408C7.23178 9.40935 7.39295 8.91963 7.77836 8.6328C7.97457 8.49289 8.19181 8.40894 8.43006 8.40894C10.6865 8.40894 12.9499 8.40894 15.2063 8.40894C15.823 8.40894 16.3205 8.91963 16.3135 9.53527C16.3135 10.1439 15.816 10.6476 15.1923 10.6546C14.0641 10.6546 12.9359 10.6546 11.8007 10.6546H11.8077Z" fill="#9D9D9D"/>
<path d="M16.9792 33.3563C19.6071 29.6065 22.2209 25.8777 24.8487 22.1279L25.7737 22.7716L17.9042 33.9999L16.9792 33.3563Z" fill="#9D9D9D"/>
<path d="M20.8124 25.2482C20.8124 26.4795 19.8033 27.5009 18.577 27.5009C17.3366 27.5009 16.3135 26.4935 16.3135 25.2552C16.3135 24.0239 17.3296 23.0095 18.563 23.0095C19.7963 23.0095 20.8124 24.0169 20.8194 25.2482H20.8124ZM18.5559 24.1359C17.9463 24.1359 17.4417 24.6466 17.4417 25.2622C17.4417 25.8848 17.9533 26.3885 18.577 26.3815C19.1866 26.3815 19.6912 25.8708 19.6912 25.2552C19.6912 24.6326 19.1796 24.1289 18.5559 24.1359Z" fill="#9D9D9D"/>
<path d="M27 30.3061C27 31.5374 25.9909 32.5518 24.7576 32.5588C23.5173 32.5588 22.5012 31.5444 22.5012 30.3061C22.5012 29.0748 23.5173 28.0604 24.7506 28.0674C25.9839 28.0674 27 29.0818 27 30.3061ZM25.8718 30.3061C25.8718 29.6835 25.3602 29.1798 24.7436 29.1798C24.1339 29.1798 23.6294 29.6905 23.6294 30.2991C23.6294 30.9147 24.1339 31.4184 24.7436 31.4254C25.3672 31.4254 25.8788 30.9217 25.8788 30.3061H25.8718Z" fill="#9D9D9D"/>
<path d="M11.2401 16.832V20.204C10.6514 20.1831 10.1609 19.9592 9.84556 19.4625C9.46716 18.8678 9.45314 18.2452 9.80352 17.6366C10.1189 17.0979 10.6164 16.86 11.2401 16.832Z" fill="#9D9D9D"/>
<path d="M12.3823 24.6955V21.3235C12.978 21.3445 13.4615 21.5613 13.7768 22.0651C14.1552 22.6597 14.1692 23.2823 13.8189 23.891C13.5035 24.4297 13.006 24.6675 12.3823 24.6955Z" fill="#9D9D9D"/>
</g>
<defs>
<clipPath id="clip0_56_83">
<rect width="27" height="34" fill="white"/>
</clipPath>
</defs>
</svg>
