<svg width="26" height="26" viewBox="0 0 26 26" fill="none" xmlns="http://www.w3.org/2000/svg">
<path d="M15.4969 26C16.454 26 17.1166 25.227 17.5706 24.0491L25.6687 2.8589C25.8773 2.31902 26 1.84049 26 1.42331C26 0.552147 25.4479 0 24.5644 0C24.1595 0 23.6687 0.110429 23.1288 0.319018L1.85276 8.46626C0.797546 8.87117 0 9.53374 0 10.4908C0 11.6564 0.871166 12.0982 2.07362 12.4663L8.42945 14.4049C9.28834 14.6748 9.79141 14.6626 10.3926 14.0982L24.0613 1.43558C24.2331 1.27607 24.4417 1.30061 24.5767 1.42331C24.7117 1.54601 24.7117 1.76687 24.5644 1.92638L11.9264 15.6196C11.411 16.1963 11.362 16.7362 11.6196 17.5951L13.5092 23.8282C13.8773 25.0798 14.319 26 15.4969 26Z" fill="#4A7CB9"/>
</svg>
