<svg width="29" height="31" viewBox="0 0 29 31" fill="none" xmlns="http://www.w3.org/2000/svg">
<g clip-path="url(#clip0_56_77)">
<path d="M12.3162 22.8662L14.4912 20.054L16.6882 22.8749C16.7804 22.6596 16.8595 22.4751 16.9386 22.2905C17.5098 20.9372 18.0635 19.5751 18.661 18.2305C18.8192 17.8746 19.096 17.5759 19.3333 17.2595C19.3685 17.2155 19.5135 17.2243 19.5882 17.2595C20.7701 17.7428 21.9609 18.213 23.1297 18.7315C23.8854 19.0654 24.6456 19.4169 25.3442 19.8563C26.6976 20.7131 27.5324 22.0005 28.1256 23.4593C28.6309 24.7072 28.9385 25.999 28.9956 27.3436C29.0176 27.8665 28.9604 27.9587 28.4859 28.1609C26.9304 28.8155 25.2915 29.1802 23.6262 29.3912C21.8379 29.6196 20.0363 29.7998 18.2392 29.9228C15.616 30.0986 12.9885 30.0459 10.3653 29.9096C8.41438 29.8086 6.47665 29.6196 4.5565 29.2769C3.11529 29.0221 1.69604 28.6837 0.347104 28.0993C0.109832 27.9983 -0.00441085 27.8313 0.00437703 27.5765C0.0922558 25.2345 0.738165 23.0815 2.17938 21.2096C2.95271 20.2078 3.99407 19.5443 5.14968 19.0566C6.54695 18.4634 7.94862 17.8746 9.34589 17.2771C9.53923 17.1936 9.64029 17.2243 9.78968 17.3957C10.4356 18.1295 10.6597 19.061 11.0463 19.9134C11.4726 20.8449 11.846 21.8028 12.2459 22.7475C12.2591 22.7783 12.2767 22.8046 12.3162 22.8749V22.8662ZM25.3223 21.2492C25.3354 20.8889 25.0762 20.7571 24.8082 20.634C23.2835 19.9442 21.7588 19.2543 20.2341 18.5645C19.887 18.4063 19.575 18.503 19.43 18.8062C19.2806 19.1269 19.4168 19.4696 19.7683 19.6278C20.3571 19.8959 20.9503 20.1639 21.5391 20.4319C22.5233 20.8757 23.5032 21.3239 24.4918 21.7677C24.9224 21.961 25.3223 21.7018 25.3223 21.2536V21.2492ZM3.67332 21.2492C3.67332 21.7062 4.07756 21.9566 4.50817 21.7633C6.06801 21.0559 7.62786 20.344 9.18332 19.6366C9.2668 19.6015 9.35029 19.5619 9.4162 19.5048C9.64029 19.3159 9.68423 18.9907 9.53044 18.7446C9.37226 18.4942 9.10423 18.4151 8.79665 18.5557C7.9662 18.9248 7.13574 19.3027 6.30529 19.6762C5.55832 20.0145 4.81135 20.3572 4.06438 20.6955C3.82271 20.8054 3.66892 20.9768 3.67332 21.2536V21.2492Z" fill="#4A7CB9"/>
<path d="M8.17712 7.74658C10.2291 8.56825 12.3162 9.00325 14.4868 9.02522C16.6662 9.04719 18.7445 8.57703 20.8141 7.729C20.8141 8.0937 20.8053 8.41006 20.8185 8.72643C20.8229 8.82309 20.88 8.94173 20.9547 9.00325C21.2755 9.27567 21.3721 9.64476 21.4161 10.0358C21.5523 11.2793 21.2359 12.4173 20.5636 13.4543C20.3264 13.8234 20.0188 14.1485 19.7508 14.5001C19.6892 14.5835 19.6365 14.6802 19.6058 14.7769C19.1268 16.2972 18.2964 17.5626 16.9255 18.4239C15.2162 19.496 13.2389 19.3773 11.6439 18.1426C10.5279 17.277 9.82045 16.1434 9.38985 14.8164C9.34591 14.6846 9.2756 14.5528 9.18333 14.4517C8.36606 13.551 7.78166 12.5272 7.59712 11.3101C7.50924 10.7125 7.47409 10.1017 7.69378 9.51734C7.75969 9.34597 7.86515 9.17461 8.00136 9.05597C8.13318 8.94173 8.18591 8.84506 8.17712 8.6737C8.16394 8.37931 8.17712 8.08491 8.17712 7.73779V7.74658Z" fill="#4A7CB9"/>
<path d="M7.02155 6.17353C6.68321 5.53201 6.7667 4.90368 7.00397 4.29292C7.37745 3.33065 8.0717 2.60565 8.88018 1.99929C10.5235 0.768984 12.3602 0.01762 14.4297 4.42201e-05C15.9984 -0.0131376 17.4747 0.426256 18.8544 1.18641C19.8694 1.74444 20.779 2.4211 21.4688 3.3658C21.8028 3.82277 22.0532 4.31489 22.1543 4.87732C22.2334 5.31671 22.1938 5.73853 21.9697 6.17353C17.0002 3.73489 12.0262 3.73489 7.02155 6.17353ZM14.544 0.281256C13.674 0.250499 12.9094 0.953529 12.8699 1.81474C12.8303 2.73747 13.5334 3.51959 14.4253 3.54595C15.3437 3.57671 16.1082 2.87368 16.139 1.96413C16.1697 1.0458 15.4755 0.30762 14.544 0.276862V0.281256Z" fill="#4A7CB9"/>
<path d="M21.6665 6.57785C19.1356 7.76421 16.5608 8.4233 13.8146 8.30467C11.2924 8.19482 8.29578 7.15785 7.39062 6.54709C12.1317 4.26664 16.8596 4.26664 21.6665 6.57785Z" fill="#4A7CB9"/>
</g>
<defs>
<clipPath id="clip0_56_77">
<rect width="29" height="30.0326" fill="white"/>
</clipPath>
</defs>
</svg>
