<svg width="26" height="29" viewBox="0 0 26 29" fill="none" xmlns="http://www.w3.org/2000/svg">
<g clip-path="url(#clip0_56_33)">
<path d="M10.4003 12.52L7.81478 9.94614L14.3252 3.42993L16.9223 6.03292C17.0679 5.87569 17.196 5.71846 17.3474 5.57871C17.854 5.1012 18.5703 5.1012 19.0711 5.58453C19.304 5.81164 19.5428 6.04457 19.7117 6.31244C19.9912 6.755 19.9096 7.31986 19.5544 7.70419C19.4088 7.86724 19.2283 8.00117 19.0653 8.15258L22.1166 11.1807L15.548 17.7493L12.5549 14.7387C12.4967 14.7911 12.4443 14.8318 12.3977 14.8726C10.115 17.1553 7.83225 19.438 5.54954 21.7207C4.55376 22.7165 3.56381 23.7064 2.56804 24.6964C2.04395 25.2147 1.33351 25.2263 0.797773 24.7255C0.658015 24.5974 0.524081 24.4635 0.390146 24.3237C-0.133945 23.788 -0.133945 23.0484 0.39597 22.5185C3.65116 19.2575 6.91217 16.0023 10.1732 12.7413C10.2314 12.6831 10.2897 12.6248 10.3945 12.5142L10.4003 12.52Z" fill="#B94A4A"/>
<path d="M8.2981 27.0782C8.2981 26.8336 8.2981 26.6298 8.2981 26.426C8.31557 25.7796 8.82802 25.2497 9.48022 25.2439C10.9069 25.2322 12.3278 25.2439 13.7545 25.2439C15.0298 25.2439 16.2992 25.238 17.5745 25.238C19.205 25.238 20.8355 25.238 22.4602 25.2439C23.1241 25.2439 23.6482 25.7447 23.6715 26.4085C23.6831 26.624 23.6715 26.8453 23.6715 27.0549C24.0034 27.0782 24.3004 27.0665 24.5915 27.1189C24.7953 27.1539 25.005 27.2412 25.168 27.3577C25.6688 27.7246 25.6339 28.336 25.1156 28.6854C24.8245 28.8776 24.5042 28.93 24.1606 28.93C21.6683 28.93 19.1759 28.93 16.6836 28.93C13.7195 28.93 10.7613 28.93 7.79731 28.93C7.43044 28.93 7.08687 28.8717 6.78989 28.6388C6.32403 28.2719 6.32403 27.7304 6.78989 27.3693C7.05193 27.1597 7.35474 27.084 7.68084 27.0782C7.87883 27.0782 8.071 27.0782 8.2981 27.0782Z" fill="#B94A4A"/>
<path d="M5.49713 9.85881C5.07203 9.83552 4.67605 9.61423 4.47224 9.13673C4.25678 8.64175 4.32084 8.17589 4.69935 7.79156C5.54954 6.9239 6.41138 6.06788 7.27322 5.20604C8.87461 3.60465 10.4702 2.00326 12.0716 0.407693C12.4384 0.0408287 12.881 -0.0931058 13.3818 0.0815914C13.8768 0.250465 14.1446 0.617329 14.2029 1.12395C14.2495 1.48499 14.1388 1.80527 13.8826 2.06149C13.1023 2.85345 12.3103 3.63959 11.5242 4.42573C10.6507 5.29921 9.77721 6.1727 8.8979 7.05201C8.05936 7.89055 7.22663 8.7291 6.38226 9.556C6.16098 9.77146 5.88146 9.86463 5.48548 9.85881H5.49713Z" fill="#B94A4A"/>
<path d="M15.6703 20.026C15.6703 19.6184 15.7868 19.3214 16.0314 19.0769C18.5063 16.602 20.9811 14.1213 23.4618 11.6522C23.9102 11.2038 24.6556 11.2097 25.1331 11.6522C25.599 12.0773 25.663 12.8052 25.2729 13.3002C25.2205 13.3643 25.1681 13.4283 25.1098 13.4865C22.6815 15.9148 20.2532 18.3431 17.8249 20.7714C17.132 21.4644 16.0605 21.2431 15.7402 20.3405C15.6995 20.224 15.6878 20.0901 15.6762 20.026H15.6703Z" fill="#B94A4A"/>
</g>
<defs>
<clipPath id="clip0_56_33">
<rect width="25.5291" height="28.9357" fill="white"/>
</clipPath>
</defs>
</svg>
