<svg width="20" height="20" viewBox="0 0 20 20" fill="none" xmlns="http://www.w3.org/2000/svg">
<g clip-path="url(#clip0_6_4045)">
<path d="M10.0051 10.5457C12.4815 10.5457 14.4872 8.37025 14.4872 5.7068C14.4872 3.084 12.4815 1 10.0051 1C7.53894 1 5.51279 3.1145 5.52302 5.72713C5.53326 8.38042 7.52871 10.5457 10.0051 10.5457ZM10.0051 8.76672C8.59295 8.76672 7.39568 7.43499 7.39568 5.72713C7.38545 4.05993 8.58272 2.77903 10.0051 2.77903C11.4377 2.77903 12.6146 4.03959 12.6146 5.7068C12.6146 7.41466 11.4275 8.76672 10.0051 8.76672ZM3.61967 20H16.3803C18.1507 20 19 19.4409 19 18.2413C19 15.4457 15.4901 11.725 10.0051 11.725C4.52018 11.725 1 15.4457 1 18.2413C1 19.4409 1.84935 20 3.61967 20ZM3.30244 18.221C3.05685 18.221 2.96475 18.1396 2.96475 17.9567C2.96475 16.4013 5.49233 13.504 10.0051 13.504C14.5077 13.504 17.0352 16.4013 17.0352 17.9567C17.0352 18.1396 16.9432 18.221 16.6976 18.221H3.30244Z" fill="#9D9D9D"/>
</g>
<defs>
<clipPath id="clip0_6_4045">
<rect width="20" height="20" fill="white"/>
</clipPath>
</defs>
</svg>
