<svg width="24" height="29" viewBox="0 0 24 29" fill="none" xmlns="http://www.w3.org/2000/svg">
<path d="M20.1541 19.4762C17.4533 18.4374 16.6741 18.1262 16.4145 18.074C16.3623 18.074 16.2589 18.074 16.2067 18.1262L13.7654 19.7877C13.7138 19.8399 13.6621 19.8916 13.6621 19.9955C13.6621 20.0473 13.6621 20.1512 13.7138 20.2035L14.9604 21.4498L13.5582 22.852C13.454 22.9561 13.454 23.1118 13.5582 23.2157L14.8042 24.8256L13.0906 28.2536C13.0388 28.3572 13.0388 28.4094 13.0906 28.5134C13.1428 28.5651 13.2462 28.6168 13.2984 28.6168H23.6856C23.8415 28.6168 23.9455 28.5134 23.9455 28.3572C24.0492 27.1626 24.4125 21.1382 20.1541 19.4762Z" fill="#674AB9"/>
<path d="M9.1954 24.7739L10.4419 23.1635C10.5458 23.0601 10.4939 22.9037 10.4419 22.8003L9.03953 21.3981L10.2861 20.1512C10.3379 20.0995 10.3899 19.9955 10.3379 19.9439C10.3379 19.8917 10.2861 19.7877 10.2342 19.736L7.79312 18.074C7.74112 18.022 7.63739 18.022 7.58539 18.022C7.37765 18.074 6.59878 18.3857 3.84603 19.4244C-0.412742 21.1383 -0.0494039 27.1626 0.0546621 28.3573C0.0546621 28.5134 0.158596 28.6169 0.314198 28.6169H10.7015C10.8055 28.6169 10.8572 28.5651 10.9093 28.5135C10.9613 28.4613 10.9613 28.3573 10.9093 28.2537L9.1954 24.7739Z" fill="#674AB9"/>
<path d="M13.7654 24.7215L12.3635 22.9561L13.7137 21.6053C13.7654 21.5536 13.7654 21.5019 13.7654 21.3979C13.7654 21.2938 13.7137 21.2421 13.7137 21.1898L12.2075 19.6839C12.1039 19.58 11.9478 19.58 11.8441 19.6839L10.3377 21.1898C10.2341 21.2937 10.2341 21.4497 10.3377 21.5535L11.6881 22.9035L10.2861 24.6697C10.2341 24.7214 10.2341 24.8254 10.2341 24.9293L11.7922 28.3571C11.8442 28.461 11.9479 28.5132 12.0519 28.5132C12.1555 28.5132 12.2595 28.461 12.3116 28.3571L13.8694 24.9293C13.8694 24.9295 13.8694 24.8255 13.7654 24.7215Z" fill="#674AB9"/>
<path d="M17.4011 9.29671C16.0508 8.56964 14.0253 8.1543 12 8.1543C9.97446 8.1543 7.94897 8.56964 6.59869 9.29671C6.54656 9.34871 6.49463 9.40064 6.49463 9.45258C6.49463 9.50444 6.49463 9.60831 6.54663 9.66031C7.68944 11.4262 10.7536 11.4781 11.3766 11.4781H12.7267C13.35 11.4781 16.4145 11.3741 17.5573 9.66031C17.6089 9.60838 17.6089 9.50444 17.6089 9.45258C17.505 9.40064 17.4532 9.29671 17.4011 9.29671Z" fill="#674AB9"/>
<path d="M12 17.2946C15.4796 17.243 18.2839 14.4382 18.2839 10.9587C18.2839 10.8547 18.2839 10.699 18.2839 10.5431C18.2839 10.4393 18.2322 10.3353 18.1282 10.3353C18.0243 10.2832 17.9203 10.3353 17.8687 10.3873C16.3622 11.8933 13.6097 12.0493 12.7788 12.0493H11.3765C10.5457 12.0493 7.79292 11.9454 6.28677 10.3873C6.23477 10.3353 6.13111 10.2833 6.02724 10.3353C5.92317 10.3873 5.8715 10.4393 5.8715 10.5431C5.8715 10.6989 5.8715 10.8026 5.8715 10.9587C5.7155 14.4382 8.52012 17.2429 12 17.2946Z" fill="#674AB9"/>
<path d="M5.2482 7.16719C5.35214 7.21919 5.45581 7.27112 5.55987 7.21919C6.49455 6.69979 9.40304 5.81711 11.9479 5.81711C14.5443 5.81711 17.4532 6.69985 18.3881 7.21919C18.4398 7.21919 18.492 7.27112 18.492 7.27112C18.5437 7.27112 18.5959 7.27112 18.6476 7.21919C19.271 6.64785 19.7381 6.23252 19.8943 6.07671C19.9979 5.97278 19.9979 5.81705 19.946 5.71311C19.8943 5.66105 19.8421 5.60905 19.7903 5.50538C19.5307 5.24571 19.167 4.82997 19.0114 4.15497L18.9072 3.79123C18.8033 2.85656 18.7516 2.49295 17.8168 2.38915H17.5572C16.5702 2.28522 15.012 2.12948 13.7655 1.03874C12.7266 0.104066 12.3116 0 11.9999 0C11.6881 0 11.2728 0.104066 10.2341 1.03874C8.98763 2.12948 7.42962 2.28522 6.44261 2.38915H6.18288C5.2482 2.49295 5.14414 2.85656 4.98853 3.73956L4.88447 4.10303C4.7288 4.7783 4.36506 5.14177 4.1054 5.45344C4.05366 5.50538 4.00173 5.60905 3.94973 5.66105C3.84579 5.76511 3.89773 5.92071 4.00173 6.02478C4.20946 6.18038 4.6248 6.59612 5.2482 7.16719Z" fill="#674AB9"/>
<path d="M18.0244 8.67336C18.0766 8.62142 18.1282 8.56942 18.18 8.46549L18.2839 7.94609C18.2839 7.84229 18.2322 7.68642 18.1282 7.68642C17.401 7.37501 14.8041 6.43994 12.0519 6.43994C9.24728 6.43994 6.70227 7.37501 5.97513 7.68642C5.87146 7.73835 5.81946 7.84229 5.81946 7.94609L5.92313 8.46549C5.92313 8.56942 5.97506 8.62136 6.07913 8.67336C6.13106 8.67336 6.13106 8.72516 6.18273 8.72516C6.23473 8.72516 6.28666 8.72516 6.28666 8.67336C7.79281 7.94615 9.81836 7.53068 12.1037 7.53068C14.3369 7.53068 16.4143 7.94615 17.9202 8.67336C17.8688 8.67336 17.9727 8.67336 18.0244 8.67336Z" fill="#674AB9"/>
</svg>
