<svg width="14" height="17" viewBox="0 0 14 17" fill="none" xmlns="http://www.w3.org/2000/svg">
<path d="M10.5801 1.15095C12.0314 1.77355 13.0296 2.64007 13.5746 3.75051C14.1254 4.8475 14.1062 6.08255 13.5172 7.45567C12.9686 8.73456 12.1139 9.5554 10.9531 9.91818C9.80608 10.2868 8.52163 10.1821 7.09979 9.60409L6.32884 11.4013L3.0222 9.98279L4.74599 5.96439L6.12205 6.55469C7.10788 6.97758 7.93239 7.17188 8.59557 7.13759C9.26453 7.08983 9.75204 6.70921 10.0581 5.99572C10.2545 5.53801 10.2774 5.12547 10.127 4.7581C9.97656 4.39072 9.68227 4.11306 9.24412 3.9251C8.7512 3.71365 8.29746 3.69434 7.88287 3.86716C7.48776 4.03238 7.19492 4.33712 7.00435 4.78137L3.6977 3.3629C4.0168 2.54343 4.50269 1.88317 5.15534 1.38212C5.82746 0.873484 6.62775 0.595157 7.55621 0.547142C8.49044 0.485665 9.49839 0.686933 10.5801 1.15095ZM5.80338 13.1364L4.32213 16.5894L0.666332 15.0211L2.14758 11.5681L5.80338 13.1364Z" fill="#4A7CB9"/>
</svg>
