<svg width="29" height="30" viewBox="0 0 29 30" fill="none" xmlns="http://www.w3.org/2000/svg">
<g clip-path="url(#clip0_56_141)">
<path d="M21.8007 0V7.38527H29.0019V21.9699H21.8025V29.6545H7.21793V21.9903H0V7.40572H7.20119V0H21.8007ZM8.87459 9.07912H1.57485V20.3225H8.88389V27.9941H20.1421V20.3002H27.3433V9.05309H20.1031V1.67154H8.87459V9.07912Z" fill="#4A7CB9"/>
<path d="M15.1666 15.1964V18.8072C15.7876 19.0787 16.4941 19.2665 17.0649 19.6588C18.491 20.6387 18.3553 22.5668 16.6931 23.4016C16.1743 23.662 15.5961 23.807 15.0271 24.0115V25.5994C15.9233 25.4618 16.7823 25.3316 17.6804 25.194C16.9645 25.9843 16.1483 26.5532 15.0345 26.648L14.9843 27.0645H14.0528L14.1235 26.9548C13.9338 26.8024 13.7646 26.6053 13.5508 26.5067C12.8219 26.1665 12.2716 25.683 11.8867 24.9523C11.3679 23.965 11.9313 23.1246 12.6825 22.7472C13.0395 22.5668 13.456 22.5017 13.9022 22.3679C13.9022 21.7896 13.9245 21.1556 13.8818 20.5271C13.8743 20.4137 13.6084 20.2687 13.4411 20.224C12.6695 20.0177 11.8607 19.9173 11.1169 19.6402C9.27619 18.9541 9.19809 16.643 9.99389 15.4381C10.5833 14.5456 11.5018 14.2035 12.4501 13.9135C12.7959 13.8075 13.1696 13.7963 13.521 13.7052C13.6345 13.6755 13.7999 13.5286 13.7981 13.4356C13.7888 12.5599 13.7386 11.6841 13.7237 10.8084C13.7088 9.93079 13.72 9.05132 13.72 8.17744C12.0224 8.10864 10.5517 8.85981 10.5498 10.6671C10.5498 11.0445 10.1092 11.4592 9.75589 11.4499C9.3394 11.4387 8.93407 10.9869 8.94151 10.5574C8.95824 9.58495 9.20925 8.68875 9.87303 7.96176C10.5312 7.24033 11.4033 6.87962 12.3348 6.66022C12.7457 6.56354 13.1678 6.5059 13.6066 6.42595C13.6475 6.02991 13.6735 5.6785 13.3184 5.34382C12.6676 4.7321 12.8033 3.80987 13.1176 3.32272C13.5303 2.68125 14.4247 2.41723 15.0978 2.69427C15.8117 2.98804 16.2784 3.78942 16.1111 4.55174C16.046 4.84923 15.8768 5.1709 15.6574 5.37543C15.3395 5.67106 15.28 5.9983 15.2986 6.43338C15.6723 6.5059 16.059 6.55982 16.4328 6.6565C17.9834 7.05812 19.1808 7.88366 19.6661 9.49013C20.0789 10.8549 20.0677 12.1806 19.205 13.4096C18.7123 14.1124 17.9909 14.4657 17.2211 14.7167C16.5908 14.9212 15.927 15.0254 15.1721 15.1983L15.1666 15.1964ZM15.2595 8.14769V13.4208C16.9143 13.3185 18.2958 12.6417 18.2828 11.0241C18.2679 9.14243 16.8902 8.19789 15.2595 8.14583V8.14769ZM13.7999 18.7217V15.308C13.6103 15.3377 13.4727 15.3452 13.3444 15.3842C12.6509 15.5869 11.9164 15.691 11.4163 16.3176C10.9719 16.8735 11.0128 17.6972 11.6394 17.9947C12.3181 18.3164 13.0711 18.4837 13.7999 18.7217ZM15.1238 22.3214C15.5105 22.1354 15.8638 21.9997 16.1762 21.8045C16.4867 21.6111 16.5071 21.1946 16.2059 21.0087C15.8861 20.8097 15.5161 20.6926 15.1238 20.5215V22.3214ZM13.8818 25.2052L13.9915 25.1662C13.9915 24.9282 14.01 24.6864 13.984 24.4503C13.971 24.335 13.8892 24.1547 13.8111 24.1379C13.6828 24.1101 13.4969 24.1565 13.4002 24.2439C13.3407 24.296 13.3574 24.5098 13.4151 24.6046C13.5471 24.8203 13.7237 25.0081 13.8836 25.2071L13.8818 25.2052Z" fill="#4A7CB9"/>
</g>
<defs>
<clipPath id="clip0_56_141">
<rect width="29" height="29.6545" fill="white"/>
</clipPath>
</defs>
</svg>
