<svg width="20" height="30" viewBox="0 0 20 30" fill="none" xmlns="http://www.w3.org/2000/svg">
<g clip-path="url(#clip0_56_145)">
<path d="M9.65085 15.0232C9.65085 16.4946 9.64531 17.9687 9.65639 19.4401C9.65639 19.7168 9.58435 19.8072 9.29341 19.8072C6.31752 19.7963 3.33885 19.799 0.362958 19.8072C0.0941854 19.8072 0.0166016 19.725 0.0166016 19.462C0.0249141 16.4919 0.0249141 13.5217 0.0166016 10.5516C0.0166016 10.294 0.0886437 10.2036 0.360187 10.2036C3.33608 10.2118 6.31474 10.2118 9.29064 10.2036C9.57604 10.2036 9.65916 10.2858 9.65639 10.568C9.64254 12.0531 9.65085 13.5382 9.65085 15.0232Z" fill="#B94A4A"/>
<path d="M10.3353 14.9657C10.3353 13.4943 10.3408 12.023 10.3297 10.5516C10.3297 10.2968 10.3934 10.2036 10.6678 10.2064C13.6686 10.2146 16.6694 10.2146 19.673 10.2064C19.9363 10.2064 20.0221 10.2639 20 10.5489C19.6425 14.9191 16.6971 18.4044 12.4162 19.4949C11.8371 19.6428 11.2441 19.7113 10.6484 19.7689C10.3685 19.7963 10.3353 19.6867 10.3353 19.4565C10.3436 17.9605 10.338 16.4617 10.338 14.9657H10.3353Z" fill="#B94A4A"/>
<path d="M0.019417 25.1969C0.019417 23.7501 0.0277295 22.3034 0.0138753 20.854C0.0111044 20.5252 0.0776048 20.3992 0.448899 20.4019C3.37492 20.4183 6.30094 20.4183 9.22972 20.4019C9.60933 20.4019 9.68414 20.5334 9.65089 20.8595C9.47079 22.7638 8.83349 24.5009 7.66696 26.0298C6.10143 28.0821 4.02052 29.3315 1.47966 29.8356C1.08342 29.9151 0.678879 29.9452 0.277106 29.9946C-0.0138332 30.0302 0.0221878 29.8247 0.0221878 29.6521C0.0221878 28.167 0.0221878 26.6819 0.0221878 25.1969H0.019417Z" fill="#B94A4A"/>
<path d="M9.65916 4.80585C9.65916 6.26626 9.65362 7.72393 9.66471 9.18433C9.66471 9.45559 9.60375 9.55423 9.30727 9.55149C6.31752 9.54053 3.33054 9.54053 0.340793 9.55149C0.0332283 9.55149 -0.016647 9.44189 0.00274894 9.17337C0.182854 6.91289 1.02519 4.93189 2.56856 3.25502C4.31419 1.35896 6.48931 0.301329 9.06343 0.0328114C9.12716 0.0273314 9.19089 0.0300714 9.25462 0.0191115C9.56218 -0.038428 9.67025 0.0602111 9.66748 0.391748C9.64808 1.86312 9.65916 3.33448 9.65916 4.80585Z" fill="#B94A4A"/>
<path d="M15.1648 9.53251C13.688 9.53251 12.2111 9.52429 10.7343 9.54073C10.4156 9.54347 10.3269 9.45031 10.3297 9.13795C10.3408 6.23083 10.3353 3.32098 10.338 0.413864C10.338 0.00834798 10.3851 -0.0245317 10.8091 0.0165679C12.8844 0.222066 14.7658 0.92076 16.3646 2.25239C18.2876 3.85527 19.4985 5.88286 19.8947 8.36254C19.9363 8.62557 19.9501 8.88587 19.9723 9.14617C20.0028 9.47497 19.8642 9.54347 19.5594 9.54073C18.0964 9.52703 16.6306 9.53525 15.1676 9.53525L15.1648 9.53251Z" fill="#B94A4A"/>
</g>
<defs>
<clipPath id="clip0_56_145">
<rect width="20" height="30" fill="white"/>
</clipPath>
</defs>
</svg>
