<svg width="32" height="32" viewBox="0 0 32 32" fill="none" xmlns="http://www.w3.org/2000/svg">
<g clip-path="url(#clip0_56_128)">
<path d="M3.20075 11.7597C3.10363 11.7597 3.02963 11.7597 2.96026 11.7597C2.21101 11.7597 1.4664 11.7597 0.717156 11.7597C0.661657 11.7597 0.610783 11.7597 0.555283 11.7597C0.00491485 11.7504 -0.0182099 11.7318 0.00953979 11.1867C0.00953979 11.1028 0.078914 11.0003 0.143663 10.949C1.2814 10.1243 2.42839 9.30896 3.57075 8.48892C6.03122 6.72771 8.49169 4.9665 10.9522 3.20529C12.3258 2.22218 13.704 1.25771 15.0591 0.251299C15.5355 -0.102807 16.5021 -0.0701919 16.9461 0.251299C19.9431 2.42253 22.9585 4.57046 25.9694 6.72305C27.9303 8.1255 29.8913 9.52794 31.8523 10.9257C31.954 11.0003 32.0049 11.0702 32.0003 11.2053C32.0003 11.7458 32.0003 11.7551 31.4499 11.7597C30.7608 11.7644 30.0763 11.7644 29.3872 11.7597C29.2114 11.7597 29.1467 11.7924 29.1467 11.988C29.1513 16.9222 29.1467 21.8518 29.1467 26.786C29.1467 27.3637 29.1513 27.9415 29.1467 28.5239C29.1467 28.6869 29.2022 28.7289 29.3548 28.7242C29.7618 28.7149 30.1688 28.7242 30.5758 28.7242C30.9181 28.7242 31.0475 28.8547 31.0522 29.1995C31.0522 29.9729 31.0522 30.7463 31.0522 31.5198C31.0522 31.8646 30.9227 31.995 30.5804 31.995C27.3615 31.995 24.1425 31.995 20.9235 31.995C14.6059 31.995 8.28819 31.995 1.97052 31.995C1.35077 31.995 1.2999 31.9438 1.2999 31.3194C1.2999 30.6252 1.2999 29.9356 1.2999 29.2414C1.2999 28.836 1.41552 28.7196 1.82714 28.7196C2.21564 28.7196 2.60413 28.7102 2.988 28.7242C3.173 28.7289 3.21 28.6636 3.21 28.4913C3.21 25.9799 3.21 23.4732 3.21 20.9618C3.21 17.9892 3.21 15.0119 3.21 12.0393C3.21 11.9554 3.21 11.8669 3.21 11.7597H3.20075ZM16.183 11.7597C13.112 11.7597 10.041 11.7597 6.96546 11.7597C6.79433 11.7597 6.72034 11.7924 6.72034 11.988C6.72496 17.486 6.72496 22.9793 6.72034 28.4773C6.72034 28.6683 6.76659 28.7289 6.96083 28.7289C8.55644 28.7196 10.152 28.7242 11.7477 28.7242C16.294 28.7242 20.8449 28.7242 25.3912 28.7289C25.5809 28.7289 25.6271 28.6683 25.6225 28.4866C25.6132 27.6479 25.6132 26.8046 25.6132 25.9659C25.6132 21.3253 25.6132 16.68 25.6132 12.0393C25.6132 11.7597 25.6132 11.7597 25.3265 11.7597C22.274 11.7597 19.2216 11.7597 16.1691 11.7597H16.183Z" fill="#4AB9A5"/>
<path d="M15.6647 25.7705C15.4103 25.6121 15.1883 25.463 14.9571 25.3325C14.0876 24.8246 13.1533 24.5591 12.1405 24.6522C11.1739 24.7454 10.3321 25.1508 9.55977 25.7192C9.24527 25.9522 8.94465 26.2084 8.61165 26.4787C8.61165 26.3902 8.6024 26.3203 8.6024 26.2504C8.6024 23.0075 8.6024 19.7646 8.59778 16.5218C8.59778 16.3121 8.66715 16.177 8.8244 16.0465C9.60602 15.3989 10.4385 14.8538 11.4329 14.5928C12.862 14.2201 14.1523 14.5695 15.3687 15.3383C15.5907 15.4781 15.6832 15.6505 15.6832 15.9161C15.6786 19.145 15.6832 22.3739 15.6786 25.6027C15.6786 25.6493 15.6739 25.6959 15.6693 25.7751L15.6647 25.7705Z" fill="#4AB9A5"/>
<path d="M23.7445 26.5021C23.6196 26.395 23.541 26.3298 23.4624 26.2599C22.6946 25.5843 21.8621 25.0251 20.8585 24.7689C19.4849 24.4194 18.2454 24.7642 17.0799 25.5097C17.0106 25.5563 16.9181 25.6262 16.8579 25.6076C16.7516 25.5796 16.6637 25.5237 16.6637 25.3606C16.6729 22.1457 16.6683 18.9308 16.6729 15.7112C16.6729 15.6367 16.7053 15.5249 16.7608 15.4876C17.7043 14.8353 18.7264 14.402 19.9012 14.4392C21.0389 14.4765 22.024 14.9238 22.9351 15.5808C23.1664 15.7485 23.3837 15.9442 23.6104 16.1166C23.726 16.2051 23.7537 16.3076 23.7537 16.4474C23.7537 18.1574 23.7537 19.8673 23.7537 21.5726C23.7537 23.1195 23.7537 24.6664 23.7537 26.2133C23.7537 26.2925 23.7537 26.367 23.7537 26.5021H23.7445Z" fill="#4AB9A5"/>
</g>
<defs>
<clipPath id="clip0_56_128">
<rect width="32" height="32" fill="white"/>
</clipPath>
</defs>
</svg>
