<svg width="29" height="28" viewBox="0 0 29 28" fill="none" xmlns="http://www.w3.org/2000/svg">
<g clip-path="url(#clip0_56_39)">
<path d="M7.57306 27.9999C7.57306 27.5664 7.54077 27.1236 7.58689 26.6947C7.64224 26.1966 8.11729 25.8368 8.62462 25.8368C9.30259 25.8368 9.97596 25.8368 10.6539 25.8368C10.6954 25.8368 10.7323 25.8368 10.7831 25.8368C10.8107 25.6524 10.8292 25.4679 10.8707 25.2926C11.129 24.1903 11.7839 23.4201 12.8216 22.9773C12.9231 22.9358 12.9554 22.8851 12.9554 22.779C12.9554 18.665 12.9554 14.5464 12.9554 10.4325C12.9554 10.3402 12.9323 10.2803 12.8493 10.2203C12.3373 9.84672 12.0652 9.33939 12.0053 8.71215C12.0053 8.67064 12.0053 8.63374 12.0053 8.58301H16.0593C16.0593 8.91047 15.9809 9.21486 15.8379 9.50081C15.6903 9.79138 15.4782 10.0312 15.2153 10.2203C15.1415 10.271 15.1092 10.3264 15.1092 10.4186C15.1092 12.4203 15.1092 14.4173 15.1092 16.4189C15.1092 18.5359 15.1092 20.6528 15.1092 22.7698C15.1092 22.862 15.1092 22.9312 15.2245 22.9773C16.4421 23.5031 17.1201 24.4255 17.2631 25.7446C17.2631 25.7677 17.2677 25.7953 17.2769 25.8414C17.3369 25.8414 17.3968 25.8414 17.4568 25.8414C18.0886 25.8414 18.7205 25.8414 19.3477 25.8414C20.0672 25.8414 20.5192 26.3027 20.5054 27.0221C20.5007 27.2943 20.5054 27.571 20.5054 27.8431C20.5054 27.8984 20.4961 27.9538 20.4915 28.0091H7.57306V27.9999Z" fill="#B9794A"/>
<path d="M0 17.2215C0.0553451 17.2123 0.11069 17.2031 0.166035 17.2031C0.484269 17.2031 0.807116 17.2031 1.12535 17.2031C1.21759 17.2031 1.25449 17.1708 1.28677 17.0878C1.74798 15.861 2.2138 14.6388 2.67501 13.4166C3.38066 11.5487 4.08631 9.67616 4.79196 7.80826C4.82425 7.72524 4.85192 7.64684 4.8842 7.56843C4.97645 7.33321 5.16093 7.20407 5.39153 7.19946C5.61291 7.19946 5.80662 7.31938 5.89425 7.54998C6.20326 8.3571 6.50766 9.16421 6.81206 9.97133C7.7068 12.3466 8.60616 14.7172 9.50091 17.0924C9.53319 17.18 9.57009 17.2123 9.66233 17.2077C9.98056 17.2031 10.3034 17.2077 10.6216 17.2077C10.6724 17.2077 10.7185 17.2123 10.7877 17.2169C10.6355 17.6458 10.4464 18.0333 10.2066 18.3976C9.26108 19.832 7.94663 20.7267 6.24016 20.9758C3.5467 21.3678 1.05617 19.8965 0.0553451 17.3599C0.0415088 17.323 0.0184484 17.2953 0 17.2584C0 17.2492 0 17.24 0 17.2261L0 17.2215ZM5.39615 9.25646L2.4029 17.1846H8.38939L5.39615 9.25646Z" fill="#B9794A"/>
<path d="M28.0508 17.1984C27.3912 19.1678 25.408 21.031 22.6777 21.031C20.0257 21.031 17.9964 19.2738 17.2769 17.1984C17.3784 17.1984 17.4706 17.1984 17.5629 17.1984C17.8304 17.1984 18.1025 17.1938 18.37 17.1984C18.4807 17.1984 18.5268 17.1661 18.5637 17.06C19.1402 15.5242 19.7213 13.993 20.2978 12.4618C20.9066 10.8429 21.52 9.22409 22.1288 7.60525C22.2349 7.32852 22.4102 7.19016 22.65 7.18555C22.9037 7.18555 23.0835 7.3193 23.1896 7.60063C24.0198 9.80521 24.85 12.0052 25.6801 14.2098C26.0399 15.1691 26.4089 16.1238 26.7686 17.0831C26.8009 17.1707 26.847 17.1938 26.9346 17.1938C27.299 17.1892 27.668 17.1938 28.0461 17.1938L28.0508 17.1984ZM22.6638 9.25638C21.6584 11.9176 20.6668 14.5464 19.6706 17.1892H25.6617C24.6655 14.5464 23.6739 11.9222 22.6685 9.25638H22.6638Z" fill="#B9794A"/>
<path d="M6.18479 4.57519C6.84893 4.26157 7.50385 3.93411 8.1726 3.63894C8.8598 3.33454 9.5839 3.15467 10.3449 3.17312C11.1428 3.19157 11.8623 3.4314 12.4849 3.9295C12.5126 3.95256 12.5402 3.97101 12.5495 3.98023L13.3428 3.44984C13.2782 3.38989 13.1813 3.32532 13.1029 3.2423C12.757 2.8595 12.6371 2.43057 12.8354 1.93708C13.043 1.42052 13.3428 0.954703 13.6564 0.498106C13.7671 0.336683 13.887 0.179872 14.0161 0C14.1406 0.175259 14.2606 0.322846 14.3666 0.484269C14.6803 0.945478 14.98 1.41591 15.2014 1.93247C15.432 2.4813 15.1922 3.07626 14.7817 3.38527C14.7448 3.41295 14.7125 3.43601 14.6756 3.46368C14.8186 3.54209 14.9616 3.61127 15.0953 3.69428C15.2245 3.78191 15.3444 3.88799 15.4643 3.98485C15.658 3.86032 15.8471 3.71273 16.0547 3.60204C16.9125 3.13622 17.8211 3.07626 18.762 3.2792C19.606 3.45907 20.367 3.84648 21.128 4.2339C21.3401 4.33998 21.5569 4.44605 21.7737 4.5383C21.8152 4.55675 21.889 4.5383 21.9259 4.51524C22.2994 4.21084 22.7837 4.15549 23.1803 4.37687C23.5816 4.60287 23.7984 5.04563 23.7292 5.49761C23.66 5.95421 23.3279 6.30012 22.8575 6.40619C22.3778 6.51227 21.8659 6.23555 21.6491 5.7605C21.6261 5.70516 21.5799 5.6452 21.5292 5.62214C20.902 5.31774 20.2747 5.01795 19.6475 4.72278C19.0848 4.45989 18.5037 4.27541 17.8764 4.26157C17.2077 4.24312 16.6173 4.43683 16.11 4.8842C15.9947 4.98567 15.9578 5.08714 15.9624 5.23933C15.9993 6.00033 15.6857 6.5999 15.0446 6.99654C14.3943 7.39779 13.7071 7.40702 13.0476 7.02421C12.3927 6.64602 12.056 6.05567 12.079 5.29468C12.0837 5.08714 12.0283 4.958 11.8715 4.82886C11.3365 4.39071 10.7185 4.22467 10.0405 4.26618C9.29795 4.3123 8.63381 4.59825 7.97428 4.91649C7.4854 5.1517 6.9919 5.38231 6.50763 5.62214C6.44768 5.64981 6.40617 5.72822 6.37388 5.79279C6.16173 6.23093 5.73742 6.46615 5.2347 6.41542C4.815 6.37391 4.41375 6.00955 4.3215 5.58524C4.21543 5.11481 4.41836 4.63515 4.815 4.39993C5.23931 4.15088 5.76048 4.20623 6.12944 4.54291C6.13867 4.55213 6.1525 4.56136 6.17556 4.57981L6.18479 4.57519Z" fill="#B9794A"/>
</g>
<defs>
<clipPath id="clip0_56_39">
<rect width="28.0507" height="28" fill="white"/>
</clipPath>
</defs>
</svg>
