<svg width="26" height="29" viewBox="0 0 26 29" fill="none" xmlns="http://www.w3.org/2000/svg">
<path d="M6.77632 29H19.2368C21.0395 29 22.0921 28.0536 22.1711 26.2906L23 7.55789H24.8158C25.4868 7.55789 26 7.03934 26 6.39115C26 5.74296 25.4737 5.25034 24.8158 5.25034H19.1053V3.30577C19.1053 1.23156 17.75 0 15.4868 0H10.4868C8.22368 0 6.86842 1.23156 6.86842 3.30577V5.25034H1.18421C0.526316 5.25034 0 5.75592 0 6.39115C0 7.0523 0.526316 7.55789 1.18421 7.55789H3.01316L3.85526 26.2906C3.92105 28.0536 4.97368 29 6.77632 29ZM9.60526 3.42244C9.60526 2.83907 10.0132 2.46312 10.6711 2.46312H15.3158C15.9737 2.46312 16.3816 2.83907 16.3816 3.42244V5.25034H9.60526V3.42244ZM8.77632 25.0201C8.25 25.0201 7.88158 24.6831 7.86842 24.1645L7.47368 10.397C7.46053 9.87841 7.82895 9.52839 8.38158 9.52839C8.9079 9.52839 9.27632 9.86545 9.28947 10.384L9.68421 24.1515C9.71053 24.6701 9.3421 25.0201 8.77632 25.0201ZM13 25.0201C12.4474 25.0201 12.0789 24.6831 12.0789 24.1645V10.384C12.0789 9.87841 12.4474 9.52839 13 9.52839C13.5526 9.52839 13.9342 9.87841 13.9342 10.384V24.1645C13.9342 24.6831 13.5526 25.0201 13 25.0201ZM17.2237 25.0331C16.6579 25.0331 16.2895 24.6701 16.3158 24.1645L16.7105 10.384C16.7237 9.86545 17.0921 9.52839 17.6184 9.52839C18.1711 9.52839 18.5395 9.87841 18.5263 10.397L18.1316 24.1645C18.1184 24.6831 17.75 25.0331 17.2237 25.0331Z" fill="#B94A4A"/>
</svg>
