<svg width="200" height="24" viewBox="0 0 200 24" fill="none" xmlns="http://www.w3.org/2000/svg">
<path d="M7.4705 18L3.3425 4.56H3.2465C3.2625 4.88 3.2865 5.36 3.3185 6C3.3505 6.64 3.3825 7.328 3.4145 8.064C3.4465 8.784 3.4625 9.44 3.4625 10.032V18H0.2225V0.863999H5.1665L9.2225 13.968H9.2945L13.5905 0.863999H18.5345V18H15.1505V9.888C15.1505 9.344 15.1585 8.72 15.1745 8.016C15.2065 7.312 15.2305 6.648 15.2465 6.024C15.2785 5.384 15.3025 4.904 15.3185 4.584H15.2225L10.8065 18H7.4705ZM34.4791 11.424C34.4791 12.512 34.3271 13.48 34.0231 14.328C33.7351 15.176 33.3111 15.896 32.7511 16.488C32.2071 17.064 31.5431 17.504 30.7591 17.808C29.9751 18.096 29.0871 18.24 28.0951 18.24C27.1831 18.24 26.3351 18.096 25.5511 17.808C24.7831 17.504 24.1191 17.064 23.5591 16.488C22.9991 15.896 22.5591 15.176 22.2391 14.328C21.9351 13.48 21.7831 12.512 21.7831 11.424C21.7831 9.968 22.0391 8.744 22.5511 7.752C23.0631 6.744 23.7991 5.976 24.7591 5.448C25.7191 4.92 26.8551 4.656 28.1671 4.656C29.3991 4.656 30.4871 4.92 31.4311 5.448C32.3751 5.976 33.1191 6.744 33.6631 7.752C34.2071 8.744 34.4791 9.968 34.4791 11.424ZM25.4311 11.424C25.4311 12.288 25.5191 13.016 25.6951 13.608C25.8871 14.184 26.1831 14.624 26.5831 14.928C26.9831 15.216 27.5031 15.36 28.1431 15.36C28.7831 15.36 29.2951 15.216 29.6791 14.928C30.0791 14.624 30.3671 14.184 30.5431 13.608C30.7351 13.016 30.8311 12.288 30.8311 11.424C30.8311 10.56 30.7351 9.84 30.5431 9.264C30.3671 8.688 30.0791 8.256 29.6791 7.968C29.2791 7.68 28.7591 7.536 28.1191 7.536C27.1751 7.536 26.4871 7.864 26.0551 8.52C25.6391 9.16 25.4311 10.128 25.4311 11.424ZM40.8905 10.08C40.8905 10.352 40.8745 10.688 40.8425 11.088C40.8265 11.488 40.8025 11.896 40.7705 12.312C40.7545 12.728 40.7305 13.096 40.6985 13.416C40.6665 13.736 40.6425 13.96 40.6265 14.088L46.6745 4.896H50.9705V18H47.5145V12.768C47.5145 12.336 47.5305 11.864 47.5625 11.352C47.5945 10.824 47.6265 10.336 47.6585 9.888C47.7065 9.424 47.7385 9.072 47.7545 8.832L41.7305 18H37.4345V4.896H40.8905V10.08ZM71.2966 4.896V15.384H73.2166V22.704H70.0006V18H61.1926V22.704H57.9766V15.384H59.0806C59.6566 14.504 60.1446 13.504 60.5446 12.384C60.9446 11.248 61.2646 10.04 61.5046 8.76C61.7446 7.48 61.9206 6.192 62.0326 4.896H71.2966ZM65.0326 7.584C64.9046 8.544 64.7446 9.48 64.5526 10.392C64.3606 11.288 64.1206 12.152 63.8326 12.984C63.5606 13.816 63.2246 14.616 62.8246 15.384H67.7206V7.584H65.0326ZM87.3541 11.424C87.3541 12.512 87.2021 13.48 86.8981 14.328C86.6101 15.176 86.1861 15.896 85.6261 16.488C85.0821 17.064 84.4181 17.504 83.6341 17.808C82.8501 18.096 81.9621 18.24 80.9701 18.24C80.0581 18.24 79.2101 18.096 78.4261 17.808C77.6581 17.504 76.9941 17.064 76.4341 16.488C75.8741 15.896 75.4341 15.176 75.1141 14.328C74.8101 13.48 74.6581 12.512 74.6581 11.424C74.6581 9.968 74.9141 8.744 75.4261 7.752C75.9381 6.744 76.6741 5.976 77.6341 5.448C78.5941 4.92 79.7301 4.656 81.0421 4.656C82.2741 4.656 83.3621 4.92 84.3061 5.448C85.2501 5.976 85.9941 6.744 86.5381 7.752C87.0821 8.744 87.3541 9.968 87.3541 11.424ZM78.3061 11.424C78.3061 12.288 78.3941 13.016 78.5701 13.608C78.7621 14.184 79.0581 14.624 79.4581 14.928C79.8581 15.216 80.3781 15.36 81.0181 15.36C81.6581 15.36 82.1701 15.216 82.5541 14.928C82.9541 14.624 83.2421 14.184 83.4181 13.608C83.6101 13.016 83.7061 12.288 83.7061 11.424C83.7061 10.56 83.6101 9.84 83.4181 9.264C83.2421 8.688 82.9541 8.256 82.5541 7.968C82.1541 7.68 81.6341 7.536 80.9941 7.536C80.0501 7.536 79.3621 7.864 78.9301 8.52C78.5141 9.16 78.3061 10.128 78.3061 11.424ZM98.9015 4.896H102.838L97.6535 11.184L103.294 18H99.2375L93.8855 11.352V18H90.3095V4.896H93.8855V11.256L98.9015 4.896ZM103.297 4.896H107.209L109.681 12.264C109.761 12.504 109.825 12.744 109.873 12.984C109.937 13.224 109.985 13.472 110.017 13.728C110.065 13.984 110.097 14.256 110.113 14.544H110.185C110.233 14.128 110.297 13.736 110.377 13.368C110.473 12.984 110.577 12.616 110.689 12.264L113.113 4.896H116.953L111.409 19.68C111.073 20.576 110.633 21.328 110.089 21.936C109.561 22.544 108.945 23 108.241 23.304C107.537 23.608 106.769 23.76 105.937 23.76C105.537 23.76 105.185 23.736 104.881 23.688C104.593 23.656 104.337 23.616 104.113 23.568V20.736C104.289 20.768 104.497 20.8 104.737 20.832C104.993 20.864 105.257 20.88 105.529 20.88C106.025 20.88 106.449 20.776 106.801 20.568C107.169 20.36 107.473 20.072 107.713 19.704C107.953 19.352 108.145 18.968 108.289 18.552L108.505 17.904L103.297 4.896ZM135.345 4.896V18H132.009V11.568C132.009 10.928 132.017 10.304 132.033 9.696C132.065 9.088 132.105 8.528 132.153 8.016H132.081L128.457 18H125.769L122.097 7.992H122.001C122.065 8.52 122.105 9.088 122.121 9.696C122.153 10.288 122.169 10.944 122.169 11.664V18H118.833V4.896H123.897L127.161 13.776L130.473 4.896H135.345ZM144.483 4.656C145.699 4.656 146.739 4.888 147.603 5.352C148.483 5.816 149.163 6.488 149.643 7.368C150.123 8.248 150.363 9.328 150.363 10.608V12.336H141.915C141.947 13.344 142.243 14.136 142.803 14.712C143.379 15.288 144.171 15.576 145.179 15.576C146.027 15.576 146.795 15.496 147.483 15.336C148.171 15.16 148.883 14.896 149.619 14.544V17.304C148.979 17.624 148.299 17.856 147.579 18C146.875 18.16 146.019 18.24 145.011 18.24C143.699 18.24 142.539 18 141.531 17.52C140.523 17.024 139.731 16.28 139.155 15.288C138.579 14.296 138.291 13.048 138.291 11.544C138.291 10.008 138.547 8.736 139.059 7.728C139.587 6.704 140.315 5.936 141.243 5.424C142.171 4.912 143.251 4.656 144.483 4.656ZM144.507 7.2C143.819 7.2 143.243 7.424 142.779 7.872C142.331 8.32 142.067 9.016 141.987 9.96H147.003C147.003 9.432 146.907 8.96 146.715 8.544C146.539 8.128 146.267 7.8 145.899 7.56C145.531 7.32 145.067 7.2 144.507 7.2ZM156.839 4.896V9.936H161.831V4.896H165.407V18H161.831V12.6H156.839V18H153.263V4.896H156.839ZM180.001 7.584H175.705V18H172.129V7.584H167.833V4.896H180.001V7.584ZM182.419 18V4.896H185.995V9.96H187.723C189.067 9.96 190.171 10.104 191.035 10.392C191.899 10.664 192.539 11.088 192.955 11.664C193.387 12.24 193.603 12.96 193.603 13.824C193.603 14.672 193.403 15.408 193.003 16.032C192.619 16.656 192.003 17.144 191.155 17.496C190.323 17.832 189.219 18 187.843 18H182.419ZM187.651 15.528C188.355 15.528 188.923 15.4 189.355 15.144C189.803 14.888 190.027 14.464 190.027 13.872C190.027 13.36 189.819 12.992 189.403 12.768C189.003 12.544 188.403 12.432 187.603 12.432H185.995V15.528H187.651ZM195.499 18V4.896H199.075V18H195.499Z" fill="#4A7CB9"/>
</svg>
