<svg width="158" height="46" viewBox="0 0 158 46" fill="none" xmlns="http://www.w3.org/2000/svg">
<path d="M11.885 15H8.865V9.48C8.025 9.77333 7.25167 9.99333 6.545 10.14C5.85167 10.2867 5.15167 10.36 4.445 10.36C3.11167 10.36 2.065 10.04 1.305 9.4C0.558333 8.74667 0.185 7.82 0.185 6.62V0.719999H3.205V5.76C3.205 6.45333 3.365 6.97333 3.685 7.32C4.005 7.66667 4.545 7.84 5.305 7.84C5.865 7.84 6.425 7.78 6.985 7.66C7.545 7.54 8.17167 7.36 8.865 7.12V0.719999H11.885V15ZM19.7358 3.88C20.7491 3.88 21.6158 4.07333 22.3358 4.46C23.0691 4.84667 23.6358 5.40667 24.0358 6.14C24.4358 6.87333 24.6358 7.77333 24.6358 8.84V10.28H17.5958C17.6224 11.12 17.8691 11.78 18.3358 12.26C18.8158 12.74 19.4758 12.98 20.3158 12.98C21.0224 12.98 21.6624 12.9133 22.2358 12.78C22.8091 12.6333 23.4024 12.4133 24.0158 12.12V14.42C23.4824 14.6867 22.9158 14.88 22.3158 15C21.7291 15.1333 21.0158 15.2 20.1758 15.2C19.0824 15.2 18.1158 15 17.2758 14.6C16.4358 14.1867 15.7758 13.5667 15.2958 12.74C14.8158 11.9133 14.5758 10.8733 14.5758 9.62C14.5758 8.34 14.7891 7.28 15.2158 6.44C15.6558 5.58667 16.2624 4.94667 17.0358 4.52C17.8091 4.09333 18.7091 3.88 19.7358 3.88ZM19.7558 6C19.1824 6 18.7024 6.18667 18.3158 6.56C17.9424 6.93333 17.7224 7.51333 17.6558 8.3H21.8358C21.8358 7.86 21.7558 7.46667 21.5958 7.12C21.4491 6.77333 21.2224 6.5 20.9158 6.3C20.6091 6.1 20.2224 6 19.7558 6ZM40.8122 4.08V15H38.0322V9.64C38.0322 9.10667 38.0389 8.58667 38.0522 8.08C38.0789 7.57333 38.1122 7.10667 38.1522 6.68H38.0922L35.0722 15H32.8322L29.7722 6.66H29.6922C29.7455 7.1 29.7789 7.57333 29.7922 8.08C29.8189 8.57333 29.8322 9.12 29.8322 9.72V15H27.0522V4.08H31.2722L33.9922 11.48L36.7522 4.08H40.8122ZM61.6911 4.08V15H58.9111V9.64C58.9111 9.10667 58.9178 8.58667 58.9311 8.08C58.9578 7.57333 58.9911 7.10667 59.0311 6.68H58.9711L55.9511 15H53.7111L50.6511 6.66H50.5711C50.6244 7.1 50.6578 7.57333 50.6711 8.08C50.6978 8.57333 50.7111 9.12 50.7111 9.72V15H47.9311V4.08H52.1511L54.8711 11.48L57.6311 4.08H61.6911ZM64.8061 15V4.08H67.7861V8.3H69.2261C70.3461 8.3 71.2661 8.42 71.9861 8.66C72.7061 8.88667 73.2394 9.24 73.5861 9.72C73.9461 10.2 74.1261 10.8 74.1261 11.52C74.1261 12.2267 73.9594 12.84 73.6261 13.36C73.3061 13.88 72.7928 14.2867 72.0861 14.58C71.3928 14.86 70.4728 15 69.3261 15H64.8061ZM69.1661 12.94C69.7528 12.94 70.2261 12.8333 70.5861 12.62C70.9594 12.4067 71.1461 12.0533 71.1461 11.56C71.1461 11.1333 70.9728 10.8267 70.6261 10.64C70.2928 10.4533 69.7928 10.36 69.1261 10.36H67.7861V12.94H69.1661ZM75.7061 15V4.08H78.6861V15H75.7061ZM99.5622 4.08V15H96.7822V9.64C96.7822 9.10667 96.7889 8.58667 96.8022 8.08C96.8289 7.57333 96.8622 7.10667 96.9022 6.68H96.8422L93.8222 15H91.5822L88.5222 6.66H88.4422C88.4955 7.1 88.5289 7.57333 88.5422 8.08C88.5689 8.57333 88.5822 9.12 88.5822 9.72V15H85.8022V4.08H90.0222L92.7422 11.48L95.5022 4.08H99.5622ZM112.597 9.52C112.597 10.4267 112.471 11.2333 112.217 11.94C111.977 12.6467 111.624 13.2467 111.157 13.74C110.704 14.22 110.151 14.5867 109.497 14.84C108.844 15.08 108.104 15.2 107.277 15.2C106.517 15.2 105.811 15.08 105.157 14.84C104.517 14.5867 103.964 14.22 103.497 13.74C103.031 13.2467 102.664 12.6467 102.397 11.94C102.144 11.2333 102.017 10.4267 102.017 9.52C102.017 8.30667 102.231 7.28667 102.657 6.46C103.084 5.62 103.697 4.98 104.497 4.54C105.297 4.1 106.244 3.88 107.337 3.88C108.364 3.88 109.271 4.1 110.057 4.54C110.844 4.98 111.464 5.62 111.917 6.46C112.371 7.28667 112.597 8.30667 112.597 9.52ZM105.057 9.52C105.057 10.24 105.131 10.8467 105.277 11.34C105.437 11.82 105.684 12.1867 106.017 12.44C106.351 12.68 106.784 12.8 107.317 12.8C107.851 12.8 108.277 12.68 108.597 12.44C108.931 12.1867 109.171 11.82 109.317 11.34C109.477 10.8467 109.557 10.24 109.557 9.52C109.557 8.8 109.477 8.2 109.317 7.72C109.171 7.24 108.931 6.88 108.597 6.64C108.264 6.4 107.831 6.28 107.297 6.28C106.511 6.28 105.937 6.55333 105.577 7.1C105.231 7.63333 105.057 8.44 105.057 9.52ZM130.189 4.08L126.169 9.32L130.569 15H127.389L123.229 9.46V15H120.449V9.46L116.289 15H113.109L117.509 9.32L113.489 4.08H116.569L120.449 9.38V4.08H123.229V9.38L127.109 4.08H130.189ZM136.24 3.88C137.253 3.88 138.12 4.07333 138.84 4.46C139.573 4.84667 140.14 5.40667 140.54 6.14C140.94 6.87333 141.14 7.77333 141.14 8.84V10.28H134.1C134.126 11.12 134.373 11.78 134.84 12.26C135.32 12.74 135.98 12.98 136.82 12.98C137.526 12.98 138.166 12.9133 138.74 12.78C139.313 12.6333 139.906 12.4133 140.52 12.12V14.42C139.986 14.6867 139.42 14.88 138.82 15C138.233 15.1333 137.52 15.2 136.68 15.2C135.586 15.2 134.62 15 133.78 14.6C132.94 14.1867 132.28 13.5667 131.8 12.74C131.32 11.9133 131.08 10.8733 131.08 9.62C131.08 8.34 131.293 7.28 131.72 6.44C132.16 5.58667 132.766 4.94667 133.54 4.52C134.313 4.09333 135.213 3.88 136.24 3.88ZM136.26 6C135.686 6 135.206 6.18667 134.82 6.56C134.446 6.93333 134.226 7.51333 134.16 8.3H138.34C138.34 7.86 138.26 7.46667 138.1 7.12C137.953 6.77333 137.726 6.5 137.42 6.3C137.113 6.1 136.726 6 136.26 6ZM157.316 4.08V15H154.536V9.64C154.536 9.10667 154.543 8.58667 154.556 8.08C154.583 7.57333 154.616 7.10667 154.656 6.68H154.596L151.576 15H149.336L146.276 6.66H146.196C146.249 7.1 146.283 7.57333 146.296 8.08C146.323 8.57333 146.336 9.12 146.336 9.72V15H143.556V4.08H147.776L150.496 11.48L153.256 4.08H157.316ZM24.281 36.94C24.281 37.5267 24.0943 38.0267 23.721 38.44C23.361 38.8533 22.821 39.12 22.101 39.24V39.32C22.861 39.4133 23.4677 39.6733 23.921 40.1C24.3877 40.5267 24.621 41.0733 24.621 41.74C24.621 42.2067 24.5277 42.64 24.341 43.04C24.1677 43.44 23.8877 43.7867 23.501 44.08C23.1143 44.3733 22.6143 44.6 22.001 44.76C21.401 44.92 20.6677 45 19.801 45H14.601V34.08H19.801C20.6543 34.08 21.4143 34.1733 22.081 34.36C22.761 34.5333 23.2943 34.8267 23.681 35.24C24.081 35.6533 24.281 36.22 24.281 36.94ZM21.541 41.58C21.541 41.1533 21.3743 40.8467 21.041 40.66C20.7077 40.46 20.2077 40.36 19.541 40.36H17.581V42.94H19.601C20.161 42.94 20.621 42.84 20.981 42.64C21.3543 42.4267 21.541 42.0733 21.541 41.58ZM21.261 37.18C21.261 36.8333 21.1277 36.58 20.861 36.42C20.5943 36.26 20.201 36.18 19.681 36.18H17.581V38.34H19.341C19.9677 38.34 20.441 38.2533 20.761 38.08C21.0943 37.8933 21.261 37.5933 21.261 37.18ZM31.6591 33.86C33.1258 33.86 34.2458 34.18 35.0191 34.82C35.8058 35.4467 36.1991 36.4133 36.1991 37.72V45H34.1191L33.5391 43.52H33.4591C33.1525 43.9067 32.8325 44.2267 32.4991 44.48C32.1791 44.7333 31.8058 44.9133 31.3791 45.02C30.9658 45.14 30.4525 45.2 29.8391 45.2C29.1991 45.2 28.6191 45.08 28.0991 44.84C27.5925 44.5867 27.1925 44.2067 26.8991 43.7C26.6058 43.18 26.4591 42.5267 26.4591 41.74C26.4591 40.58 26.8658 39.7267 27.6791 39.18C28.4925 38.62 29.7125 38.3133 31.3391 38.26L33.2391 38.2V37.72C33.2391 37.1467 33.0858 36.7267 32.7791 36.46C32.4858 36.1933 32.0725 36.06 31.5391 36.06C31.0058 36.06 30.4858 36.14 29.9791 36.3C29.4725 36.4467 28.9658 36.6333 28.4591 36.86L27.4791 34.84C28.0658 34.5333 28.7125 34.2933 29.4191 34.12C30.1391 33.9467 30.8858 33.86 31.6591 33.86ZM32.0791 39.98C31.1191 40.0067 30.4525 40.18 30.0791 40.5C29.7058 40.82 29.5191 41.24 29.5191 41.76C29.5191 42.2133 29.6525 42.54 29.9191 42.74C30.1858 42.9267 30.5325 43.02 30.9591 43.02C31.5991 43.02 32.1391 42.8333 32.5791 42.46C33.0191 42.0733 33.2391 41.5333 33.2391 40.84V39.94L32.0791 39.98ZM53.0095 34.08V45H50.2295V39.64C50.2295 39.1067 50.2361 38.5867 50.2495 38.08C50.2761 37.5733 50.3095 37.1067 50.3495 36.68H50.2895L47.2695 45H45.0295L41.9695 36.66H41.8895C41.9428 37.1 41.9761 37.5733 41.9895 38.08C42.0161 38.5733 42.0295 39.12 42.0295 39.72V45H39.2495V34.08H43.4695L46.1895 41.48L48.9495 34.08H53.0095ZM70.0484 34.08V45H67.0684V36.32H63.1084V45H60.1284V34.08H70.0484ZM83.0952 39.52C83.0952 40.4267 82.9686 41.2333 82.7152 41.94C82.4752 42.6467 82.1219 43.2467 81.6552 43.74C81.2019 44.22 80.6486 44.5867 79.9952 44.84C79.3419 45.08 78.6019 45.2 77.7752 45.2C77.0152 45.2 76.3086 45.08 75.6552 44.84C75.0152 44.5867 74.4619 44.22 73.9952 43.74C73.5286 43.2467 73.1619 42.6467 72.8952 41.94C72.6419 41.2333 72.5152 40.4267 72.5152 39.52C72.5152 38.3067 72.7286 37.2867 73.1552 36.46C73.5819 35.62 74.1952 34.98 74.9952 34.54C75.7952 34.1 76.7419 33.88 77.8352 33.88C78.8619 33.88 79.7686 34.1 80.5552 34.54C81.3419 34.98 81.9619 35.62 82.4152 36.46C82.8686 37.2867 83.0952 38.3067 83.0952 39.52ZM75.5552 39.52C75.5552 40.24 75.6286 40.8467 75.7752 41.34C75.9352 41.82 76.1819 42.1867 76.5152 42.44C76.8486 42.68 77.2819 42.8 77.8152 42.8C78.3486 42.8 78.7752 42.68 79.0952 42.44C79.4286 42.1867 79.6686 41.82 79.8152 41.34C79.9752 40.8467 80.0552 40.24 80.0552 39.52C80.0552 38.8 79.9752 38.2 79.8152 37.72C79.6686 37.24 79.4286 36.88 79.0952 36.64C78.7619 36.4 78.3286 36.28 77.7952 36.28C77.0086 36.28 76.4352 36.5533 76.0752 37.1C75.7286 37.6333 75.5552 38.44 75.5552 39.52ZM99.318 34.08V45H96.538V39.64C96.538 39.1067 96.5447 38.5867 96.558 38.08C96.5847 37.5733 96.618 37.1067 96.658 36.68H96.598L93.578 45H91.338L88.278 36.66H88.198C88.2514 37.1 88.2847 37.5733 88.298 38.08C88.3247 38.5733 88.338 39.12 88.338 39.72V45H85.558V34.08H89.778L92.498 41.48L95.258 34.08H99.318ZM112.353 39.52C112.353 40.4267 112.226 41.2333 111.973 41.94C111.733 42.6467 111.38 43.2467 110.913 43.74C110.46 44.22 109.906 44.5867 109.253 44.84C108.6 45.08 107.86 45.2 107.033 45.2C106.273 45.2 105.566 45.08 104.913 44.84C104.273 44.5867 103.72 44.22 103.253 43.74C102.786 43.2467 102.42 42.6467 102.153 41.94C101.9 41.2333 101.773 40.4267 101.773 39.52C101.773 38.3067 101.986 37.2867 102.413 36.46C102.84 35.62 103.453 34.98 104.253 34.54C105.053 34.1 106 33.88 107.093 33.88C108.12 33.88 109.026 34.1 109.813 34.54C110.6 34.98 111.22 35.62 111.673 36.46C112.126 37.2867 112.353 38.3067 112.353 39.52ZM104.813 39.52C104.813 40.24 104.886 40.8467 105.033 41.34C105.193 41.82 105.44 42.1867 105.773 42.44C106.106 42.68 106.54 42.8 107.073 42.8C107.606 42.8 108.033 42.68 108.353 42.44C108.686 42.1867 108.926 41.82 109.073 41.34C109.233 40.8467 109.313 40.24 109.313 39.52C109.313 38.8 109.233 38.2 109.073 37.72C108.926 37.24 108.686 36.88 108.353 36.64C108.02 36.4 107.586 36.28 107.053 36.28C106.266 36.28 105.693 36.5533 105.333 37.1C104.986 37.6333 104.813 38.44 104.813 39.52ZM117.241 38.08C117.241 38.5467 117.354 38.9 117.581 39.14C117.821 39.38 118.147 39.5 118.561 39.5C119.134 39.5 119.667 39.44 120.161 39.32C120.654 39.1867 121.147 39.0133 121.641 38.8V34.08H124.621V45H121.641V40.66C121.174 40.9133 120.641 41.1467 120.041 41.36C119.441 41.56 118.761 41.66 118.001 41.66C116.867 41.66 115.961 41.3667 115.281 40.78C114.601 40.1933 114.261 39.3133 114.261 38.14V34.08H117.241V38.08ZM132.826 38.3C133.946 38.3 134.872 38.42 135.606 38.66C136.339 38.8867 136.879 39.24 137.226 39.72C137.586 40.2 137.766 40.8 137.766 41.52C137.766 42.2267 137.599 42.84 137.266 43.36C136.946 43.88 136.432 44.2867 135.726 44.58C135.019 44.86 134.092 45 132.946 45H127.746V34.08H130.726V38.3H132.826ZM134.786 41.56C134.786 41.1333 134.612 40.8267 134.266 40.64C133.932 40.4533 133.432 40.36 132.766 40.36H130.726V42.94H132.806C133.392 42.94 133.866 42.8333 134.226 42.62C134.599 42.4067 134.786 42.0533 134.786 41.56ZM143.811 29.84C145.224 29.84 146.351 30.2067 147.191 30.94C148.031 31.66 148.451 32.7 148.451 34.06C148.451 35.3267 148.037 36.32 147.211 37.04C146.397 37.76 145.304 38.1333 143.931 38.16V39.94H140.711V35.96H142.051C143.011 35.96 143.757 35.8267 144.291 35.56C144.824 35.28 145.091 34.7867 145.091 34.08C145.091 33.6267 144.964 33.2733 144.711 33.02C144.457 32.7667 144.117 32.64 143.691 32.64C143.211 32.64 142.831 32.7867 142.551 33.08C142.284 33.36 142.151 33.72 142.151 34.16H138.931C138.904 33.36 139.071 32.6333 139.431 31.98C139.804 31.3133 140.364 30.7933 141.111 30.42C141.857 30.0333 142.757 29.84 143.811 29.84ZM144.111 41.58V45H140.551V41.58H144.111Z" fill="#4A7CB9"/>
</svg>
